<svg xmlns="http://www.w3.org/2000/svg" viewBox="783.44 813.23 215.31 427.87"><path d="M783.50 813.23L783.50 814.99C783.50 955.85 783.50 1096.72 783.50 1237.58C783.50 1238.35 783.55 1239.12 783.50 1239.88C783.44 1240.76 783.81 1241.10 784.66 1241.02C785.12 1240.98 785.58 1241.02 786.04 1241.02C856.42 1241.02 926.80 1241.02 997.17 1241.05C998.53 1241.05 998.75 1240.57 998.75 1239.38C998.72 1228.19 998.73 1217.00 998.73 1205.81C998.73 1075.98 998.73 946.15 998.73 816.32L998.73 813.23L783.50 813.23M793.93 823.86C793.97 823.05 794.15 822.25 795.26 822.53C795.98 822.71 797.19 822.39 796.91 823.98C797.15 825.52 795.92 825.34 794.94 825.37C794.92 825.37 794.90 825.37 794.88 825.37C793.90 825.37 793.89 824.58 793.93 823.86M815.14 834.35C814.66 834.19 813.97 833.79 813.89 833.39C813.56 831.71 813.42 829.99 813.22 828.29C813.28 828.28 813.34 828.27 813.40 828.27C813.40 827.66 813.42 827.05 813.39 826.44C813.30 824.19 815.02 823.07 817.01 824.15C817.36 824.34 817.74 824.99 817.69 825.37C817.27 828.22 816.77 831.05 816.21 833.87C816.16 834.08 815.59 834.36 815.26 834.36C815.22 834.36 815.18 834.36 815.14 834.35M900.64 851.47C900.07 847.08 900.95 842.94 902.57 838.82C904.45 834.00 907.02 829.64 910.12 825.54C911.09 824.27 912.33 823.86 913.85 823.86C918.80 823.89 923.76 823.87 928.71 823.87C928.71 823.90 928.71 823.93 928.71 823.96C933.71 823.96 938.71 823.95 943.71 823.98C944.16 823.98 944.94 824.23 944.97 824.45C945.05 824.98 944.98 825.77 944.63 826.10C941.38 829.25 938.20 832.49 934.70 835.35C931.96 837.58 928.83 839.35 925.81 841.23C924.84 841.84 923.63 842.05 922.61 842.60C919.39 844.32 916.15 846.00 913.03 847.89C910.21 849.61 907.60 851.67 904.80 853.43C903.87 854.01 903.11 854.33 902.49 854.33C901.50 854.33 900.90 853.47 900.64 851.47M949.02 887.51C948.05 884.11 948.10 880.67 948.31 877.23C948.60 872.41 948.86 867.57 949.46 862.77C949.97 858.67 950.83 854.60 951.71 850.55C952.30 847.85 953.09 845.17 954.02 842.57C954.89 840.11 956.03 837.76 957.10 835.38C958.09 833.16 959.10 830.95 960.21 828.79C960.83 827.57 961.54 826.34 962.47 825.35C963.09 824.67 964.10 824.17 965.02 824.00C966.25 823.77 967.56 823.92 968.84 823.94C970.03 823.96 970.82 824.49 970.71 825.80C970.43 828.93 970.11 832.05 969.80 835.17C969.73 835.84 969.51 836.50 969.56 837.15C969.86 841.04 968.44 844.60 967.06 848.02C965.34 852.29 962.90 856.27 960.79 860.39C959.81 862.33 958.85 864.28 957.95 866.25C956.80 868.78 955.67 871.31 954.65 873.88C954.05 875.38 953.64 876.96 953.18 878.52C952.23 881.75 951.73 885.04 951.81 888.42C951.81 888.72 951.72 889.01 951.66 889.42C951.47 889.44 951.30 889.45 951.14 889.45C949.91 889.45 949.39 888.83 949.02 887.51M892.26 823.88C893.38 823.88 894.50 823.86 895.62 823.89C897.17 823.92 897.64 824.42 897.37 825.97C897.10 827.51 896.65 829.01 896.33 830.54C895.78 833.16 895.28 835.78 894.73 838.39C894.64 838.85 894.40 839.28 894.23 839.72C893.77 839.45 893.10 839.30 892.89 838.90C892.12 837.43 891.52 835.88 890.81 834.38C889.88 832.41 888.91 830.46 887.97 828.49C887.69 827.90 887.37 827.31 887.19 826.68C886.61 824.68 887.17 823.93 889.20 823.90C890.22 823.88 891.24 823.90 892.26 823.90L892.26 823.88M838.02 823.93C838.02 823.92 838.02 823.92 838.02 823.91C840.26 823.91 842.51 823.86 844.75 823.92C846.32 823.97 846.69 824.66 845.85 826.00C844.49 828.18 843.01 830.29 841.64 832.47C841.13 833.28 840.83 834.21 840.38 835.04C838.47 838.53 836.48 841.96 834.66 845.48C833.89 846.95 833.46 848.58 832.88 850.14C832.28 851.74 831.69 853.34 831.10 854.94C831.02 855.18 830.95 855.43 830.91 855.68C830.37 858.73 829.87 861.79 829.30 864.84C829.20 865.38 828.85 865.87 828.62 866.39C828.09 865.99 827.24 865.68 827.10 865.18C826.36 862.66 825.78 860.10 825.21 857.54C824.79 855.62 824.53 853.66 824.09 851.74C823.02 847.01 822.62 842.22 823.48 837.47C824.24 833.22 825.54 829.08 828.35 825.60C829.24 824.50 830.27 823.87 831.74 823.91C832.58 823.94 833.43 823.94 834.27 823.94C835.52 823.94 836.77 823.93 838.02 823.93M897.01 907.15C896.34 906.63 895.68 905.97 895.34 905.23C893.79 901.87 892.28 898.49 890.91 895.05C889.90 892.52 889.19 889.87 888.23 887.32C887.36 885.00 886.28 882.77 885.37 880.47C883.52 875.83 881.56 871.23 879.96 866.50C879.16 864.16 879.01 861.60 878.61 859.13C878.04 855.59 877.47 852.04 876.95 848.50C876.66 846.49 876.48 844.47 876.23 842.46C875.88 839.60 875.41 836.75 875.19 833.88C875.00 831.49 875.03 829.08 875.09 826.68C875.11 825.76 875.80 825.38 876.57 826.06C877.47 826.85 878.43 827.69 879.03 828.70C880.84 831.73 882.78 834.74 884.13 837.99C885.77 841.97 886.98 846.15 888.16 850.30C889.28 854.26 890.16 858.30 891.10 862.32C891.34 863.35 891.43 864.42 891.57 865.48C892.03 868.95 892.49 872.42 892.93 875.90C893.35 879.21 893.55 882.57 894.17 885.84C895.03 890.41 895.10 895.11 896.87 899.52C897.73 901.66 898.05 904.02 898.59 906.17C898.58 906.98 898.23 907.45 897.74 907.45C897.52 907.45 897.27 907.35 897.01 907.15M854.11 905.59C853.77 905.59 853.14 904.62 853.15 904.10C853.23 901.07 852.53 898.19 852.00 895.24C851.47 892.25 851.96 889.06 851.32 886.11C850.00 879.94 851.03 873.73 850.73 867.57C850.73 862.41 850.55 857.25 850.81 852.11C850.94 849.48 851.81 846.87 852.45 844.28C852.90 842.47 853.37 840.64 854.10 838.92C854.99 836.84 856.16 834.87 857.20 832.85C857.74 831.79 858.24 830.70 858.85 829.67C859.10 829.25 859.59 828.98 859.98 828.64C860.22 829.05 860.61 829.43 860.66 829.85C861.63 838.46 862.53 847.09 861.68 855.75C861.14 861.25 860.09 866.71 859.24 872.18C858.77 875.20 858.11 878.20 857.74 881.23C856.95 887.80 856.28 894.38 855.59 900.96C855.49 901.92 855.52 902.89 855.56 903.86C855.61 904.92 855.07 905.59 854.14 905.59C854.13 905.59 854.12 905.59 854.11 905.59M985.86 858.87C985.50 858.04 985.16 857.18 984.99 856.30C984.03 851.16 983.33 845.98 983.41 840.72C983.45 837.66 983.34 834.59 983.39 831.53C983.40 830.73 982.96 829.23 984.26 829.37C985.32 829.48 986.37 830.51 987.23 831.32C987.57 831.64 987.46 832.49 987.46 833.09C987.48 837.13 987.47 841.16 987.47 845.19C987.47 849.02 987.47 852.85 987.46 856.68C987.46 857.34 987.45 858.02 987.33 858.66C987.28 858.93 986.94 859.30 986.70 859.32C986.69 859.32 986.67 859.33 986.66 859.33C986.39 859.32 985.97 859.10 985.86 858.87M793.70 838.40C794.11 837.45 794.26 836.64 794.74 836.18C795.02 835.92 795.91 836.11 796.39 836.35C796.62 836.47 796.76 837.37 796.56 837.62C795.90 838.46 796.47 840.17 794.94 840.20C794.94 840.20 794.94 840.20 794.93 840.20C794.54 840.20 794.12 839.03 793.70 838.40M901.43 883.64C901.26 881.40 901.34 879.14 901.24 876.90C901.20 875.95 900.89 875.02 900.81 874.07C900.50 870.09 902.28 866.88 904.70 863.97C909.17 858.59 914.93 855.02 921.35 852.45C923.03 851.78 924.83 851.34 926.62 851.09C928.00 850.90 928.28 851.54 927.89 852.86C927.22 855.14 926.53 857.42 926.05 859.75C924.93 865.22 923.17 870.42 919.26 874.55C916.80 877.16 913.94 879.38 911.41 881.93C909.10 884.26 907.00 886.80 904.79 889.23C904.30 889.77 903.77 890.27 903.18 890.87C901.48 888.53 901.61 886.03 901.43 883.64M800.53 903.11C800.40 898.06 800.78 892.96 800.14 887.97C799.53 883.15 799.65 878.35 799.34 873.54C799.15 870.71 799.46 868.05 800.83 865.44C802.52 862.21 803.83 858.78 805.29 855.44C805.82 854.24 806.26 852.99 806.85 851.83C807.04 851.47 807.61 851.14 808.02 851.12C808.34 851.10 808.90 851.52 808.98 851.84C809.97 855.44 810.94 859.05 811.78 862.68C812.08 864.01 812.01 865.42 812.11 866.68C811.86 870.68 811.89 874.59 811.31 878.41C810.62 883.00 809.38 887.51 808.41 892.07C807.69 895.47 806.66 898.74 804.78 901.70C804.26 902.51 803.73 903.35 803.05 904.00C802.59 904.43 801.83 904.56 801.21 904.83C800.98 904.26 800.55 903.69 800.53 903.11M939.82 880.59C938.83 879.02 937.68 877.48 937.05 875.77C935.68 872.04 934.90 868.24 937.67 864.69C938.45 863.70 939.15 862.64 939.98 861.71C940.25 861.40 940.83 861.37 941.53 861.11C941.53 864.19 941.53 866.88 941.53 869.57C941.53 873.08 941.54 876.60 941.50 880.11C941.49 880.49 941.17 880.88 941.00 881.26C940.60 881.04 940.03 880.93 939.82 880.59M958.45 921.16C957.66 916.09 956.54 911.04 956.26 905.95C955.94 900.27 956.20 894.54 956.60 888.86C956.83 885.72 957.69 882.60 958.55 879.54C960.47 872.72 963.87 866.82 969.89 862.74C970.34 862.43 970.85 862.23 971.52 861.89C971.72 862.54 971.92 862.99 972.01 863.47C972.40 865.50 972.69 867.56 973.14 869.58C973.85 872.72 974.82 875.81 975.38 878.97C975.81 881.41 975.86 883.93 975.92 886.43C975.93 887.12 975.50 887.92 975.06 888.51C973.08 891.16 971.00 893.72 969.03 896.37C968.38 897.25 967.89 898.26 967.42 899.26C966.25 901.79 964.92 904.28 964.04 906.92C963.23 909.35 963.02 911.99 962.38 914.49C961.77 916.88 960.98 919.22 960.17 921.55C960.05 921.90 959.42 922.06 959.02 922.30C958.82 921.92 958.51 921.56 958.45 921.16M844.35 908.01C841.91 905.87 839.43 903.76 837.14 901.46C836.43 900.75 835.93 899.48 835.95 898.48C836.05 891.66 836.10 884.81 836.63 878.01C836.92 874.42 837.72 870.76 839.83 867.63C840.12 867.22 840.72 867.01 841.18 866.71C841.38 867.19 841.73 867.67 841.75 868.16C841.96 873.34 841.94 878.54 842.35 883.71C842.62 887.08 843.49 890.40 844.10 893.74C844.17 894.09 844.35 894.41 844.40 894.76C845.01 899.28 845.62 903.80 846.29 908.83C845.32 908.43 844.73 908.34 844.35 908.01M873.22 943.67C872.82 943.62 872.27 943.45 872.10 943.14C870.84 940.99 869.65 938.80 868.48 936.60C867.69 935.12 866.81 933.66 866.24 932.09C865.27 929.39 864.45 926.62 863.66 923.85C862.92 921.21 862.06 918.56 861.72 915.85C861.39 913.19 861.65 910.46 861.65 907.76C861.45 907.74 861.24 907.72 861.04 907.71C861.61 903.06 861.97 898.38 862.81 893.79C863.49 890.03 864.76 886.38 865.72 882.67C865.96 881.73 865.90 880.70 866.24 879.82C866.58 878.97 867.26 878.27 867.78 877.50C868.45 877.98 869.34 878.33 869.73 878.97C872.15 883.00 873.79 887.35 874.96 891.90C875.81 895.24 876.88 898.52 877.88 901.81C878.90 905.15 878.38 908.49 877.95 911.83C877.62 914.35 877.28 916.87 876.96 919.39C876.33 924.33 875.68 929.27 875.08 934.22C874.90 935.69 874.92 937.18 874.70 938.64C874.49 940.09 874.12 941.51 873.77 942.93C873.70 943.21 873.39 943.67 873.23 943.67C873.23 943.67 873.22 943.67 873.22 943.67M812.49 902.93C813.07 901.38 813.82 899.89 814.38 898.34C814.88 896.91 815.24 895.44 815.64 893.97C816.18 891.96 816.71 889.95 817.22 887.92C817.94 885.05 818.64 882.16 819.48 878.76C820.18 879.44 820.76 879.73 820.90 880.17C821.52 882.14 822.04 884.14 822.56 886.13C822.85 887.24 823.17 888.36 823.32 889.50C824.05 894.97 821.53 898.82 817.16 901.76C816.10 902.46 815.19 903.38 814.13 904.06C813.69 904.34 813.02 904.26 812.45 904.35C812.46 903.87 812.33 903.35 812.49 902.93M947.87 920.43C943.26 916.85 938.67 913.25 934.05 909.68C933.25 909.06 932.32 908.61 931.52 907.99C929.80 906.67 928.65 905.08 929.29 902.69C929.17 902.69 929.04 902.68 928.91 902.68C929.26 901.22 929.62 899.76 929.97 898.30C930.03 898.06 930.06 897.80 930.10 897.55C930.58 894.26 931.00 890.97 931.58 887.69C931.69 887.04 932.32 886.40 932.88 885.98C933.03 885.87 933.86 886.55 934.29 886.95C936.25 888.78 936.15 891.59 937.45 893.75C939.40 897.01 941.28 900.31 943.09 903.65C944.57 906.39 945.96 909.19 947.29 912.01C948.04 913.60 948.63 915.28 949.20 916.94C949.49 917.80 949.70 918.72 949.73 919.62C949.74 920.08 949.34 920.62 948.97 920.97C948.96 920.98 948.94 920.98 948.91 920.98C948.72 920.98 948.16 920.66 947.87 920.43M916.19 929.37C914.93 926.82 913.75 924.23 912.51 921.68C911.11 918.82 909.49 916.05 908.33 913.10C907.40 910.77 906.66 908.26 906.47 905.79C906.04 900.20 908.16 895.55 912.68 892.13C913.68 891.36 914.78 890.71 915.91 890.12C917.05 889.52 917.52 889.88 917.45 891.13C916.38 898.92 917.19 906.72 917.32 914.51C917.38 918.27 917.84 922.02 918.05 925.78C918.10 926.89 917.93 928.01 917.78 929.12C917.74 929.45 917.42 929.75 917.22 930.07C916.87 929.84 916.35 929.69 916.19 929.37M967.49 945.42C967.10 944.79 966.77 944.04 966.70 943.31C966.46 941.13 966.36 938.94 966.21 936.75C966.20 930.42 967.16 924.20 968.72 918.14C969.93 913.48 971.50 908.85 974.63 905.01C975.46 903.99 976.42 903.04 977.45 902.22C978.57 901.32 980.11 901.94 980.64 903.38C982.73 909.09 983.69 915.03 984.27 921.04C984.51 923.55 983.63 925.72 981.78 927.51C979.77 929.45 977.70 931.36 975.94 933.52C974.73 935.00 974.02 936.89 973.08 938.60C971.82 940.90 970.60 943.22 969.29 945.48C969.04 945.91 968.74 946.11 968.44 946.11C968.09 946.11 967.75 945.86 967.49 945.42M795.69 931.22C796.21 929.92 796.72 928.53 797.59 927.47C800.23 924.26 802.88 921.04 805.81 918.11C808.65 915.28 811.94 912.92 815.62 911.23C816.71 910.74 817.83 910.32 818.98 909.98C820.79 909.44 821.45 909.95 821.55 911.86C821.57 912.16 821.56 912.47 821.56 912.78C821.08 918.57 818.34 923.09 813.31 925.81C809.31 927.96 804.95 929.43 800.75 931.21C799.68 931.67 798.64 932.21 797.55 932.62C797.02 932.82 796.42 932.83 795.85 932.92C795.78 932.35 795.50 931.69 795.69 931.22M867.89 955.56C864.78 954.05 861.73 952.42 858.64 950.89C854.31 948.74 849.90 946.77 845.66 944.48C842.85 942.97 841.06 940.40 840.01 937.39C838.92 934.29 837.50 931.24 836.95 928.04C836.23 923.84 836.21 919.53 835.95 915.26C835.93 914.90 836.35 914.51 836.60 914.09C837.51 914.53 838.24 914.78 838.87 915.19C843.49 918.21 847.27 922.13 850.49 926.56C853.64 930.88 856.60 935.32 859.58 939.76C861.85 943.14 863.98 946.60 866.23 949.99C867.13 951.34 868.22 952.54 869.12 953.88C869.54 954.49 869.72 955.27 870.00 955.97C869.29 955.84 868.51 955.86 867.89 955.56M895.17 974.85C891.38 969.61 887.53 964.40 885.21 958.28C884.45 956.26 884.14 954.06 883.45 952.00C882.05 947.86 881.65 943.53 881.47 939.26C881.23 933.62 881.60 927.94 881.81 922.28C881.87 920.57 882.13 918.84 882.52 917.17C882.75 916.23 883.32 915.30 883.95 914.53C884.62 913.71 885.37 914.30 885.89 914.88C887.35 916.50 888.83 918.12 890.16 919.85C892.66 923.12 895.16 926.41 897.47 929.82C898.29 931.01 898.57 932.57 899.01 933.72C898.48 936.31 898.03 938.49 897.58 940.67C897.50 941.07 897.37 941.46 897.30 941.86C896.07 949.19 895.73 956.55 896.30 963.95C896.56 967.34 896.96 970.72 897.22 974.10C897.27 974.63 896.93 975.19 896.76 975.74C896.22 975.45 895.50 975.29 895.17 974.85M964.80 967.33C961.24 963.28 957.81 959.09 954.12 955.15C950.60 951.38 946.67 948.03 941.87 945.92C939.82 945.03 937.75 944.20 935.68 943.36C933.18 942.35 931.63 940.70 931.37 937.84C930.96 933.19 930.37 928.54 929.82 923.90C929.71 923.01 929.32 922.14 929.24 921.24C929.10 919.49 929.76 919.04 931.29 919.88C934.99 921.93 938.77 923.85 942.29 926.16C948.51 930.23 954.06 935.11 958.17 941.39C960.50 944.95 962.72 948.61 963.81 952.81C964.25 954.52 964.74 956.22 965.08 957.95C965.65 960.87 966.12 963.81 966.66 966.94C966.49 967.26 966.26 967.66 966.04 968.06C965.62 967.82 965.10 967.67 964.80 967.33M820.89 995.73C820.48 991.31 819.22 987.06 818.26 982.75C816.99 977.10 816.66 971.35 816.70 965.55C816.96 961.43 817.00 957.29 817.52 953.20C818.15 948.26 820.54 943.83 822.27 939.22C822.49 938.63 822.96 938.03 823.48 937.70C823.93 937.41 824.64 937.39 825.19 937.50C825.42 937.55 825.58 938.22 825.67 938.64C826.44 942.19 827.14 945.75 827.95 949.29C828.75 952.78 829.67 956.25 830.54 959.72C830.99 961.49 831.58 963.23 831.85 965.03C832.01 966.02 831.88 967.19 831.46 968.09C830.36 970.48 828.93 972.72 827.84 975.11C826.95 977.07 826.30 979.16 825.67 981.22C824.96 983.53 824.35 985.88 823.78 988.23C823.53 989.31 823.54 990.45 823.33 991.55C823.04 993.02 822.70 994.48 822.29 995.92C822.21 996.23 821.75 996.42 821.46 996.67C821.26 996.36 820.92 996.06 820.89 995.73M794.87 954.03C794.79 951.23 794.99 948.41 794.77 945.63C794.57 943.21 795.57 941.61 797.59 940.78C800.59 939.57 803.70 938.65 806.76 937.61C806.81 937.75 806.85 937.88 806.90 938.02C809.08 937.98 809.46 938.68 808.84 940.89C807.75 944.73 805.05 947.47 802.59 950.35C801.11 952.09 799.39 953.64 797.67 955.15C797.13 955.62 796.22 955.68 795.48 955.93C795.27 955.30 794.89 954.67 794.87 954.03M974.41 975.75C974.17 975.70 973.93 975.12 973.92 974.78C973.88 973.05 973.90 971.32 973.90 969.58C973.93 969.58 973.95 969.58 973.97 969.58C973.76 966.24 973.20 962.88 973.39 959.57C973.77 953.35 974.81 947.24 978.99 942.20C979.57 941.49 980.15 940.78 980.83 940.17C981.12 939.91 981.69 939.78 982.06 939.87C982.30 939.93 982.57 940.52 982.55 940.85C982.36 944.15 982.15 947.44 981.89 950.72C981.80 951.73 981.55 952.73 981.39 953.73C980.71 957.76 980.19 961.83 979.32 965.81C978.69 968.65 977.61 971.40 976.69 974.17C976.52 974.68 976.22 975.24 975.81 975.55C975.58 975.73 975.22 975.80 974.87 975.80C974.71 975.80 974.55 975.79 974.41 975.75M913.73 999.11C911.82 995.84 909.72 992.64 908.27 989.17C907.01 986.16 906.25 982.87 905.79 979.63C904.67 971.87 905.31 964.05 905.67 956.26C905.80 953.53 906.31 950.82 906.77 948.12C906.96 947.03 907.32 945.91 907.87 944.97C908.43 944.01 909.27 944.40 909.87 945.10C912.30 947.91 914.71 950.75 917.12 953.58C917.91 954.51 918.79 955.37 919.48 956.38C920.81 958.34 920.76 958.37 920.64 962.66C920.17 965.13 919.43 968.81 918.78 972.51C918.39 974.66 917.99 976.82 917.87 978.99C917.51 985.15 917.29 991.32 917.01 997.48C917.00 997.79 917.03 998.13 916.90 998.39C916.51 999.18 916.04 999.95 915.61 1000.72C914.97 1000.19 914.13 999.78 913.73 999.11M959.93 1009.04C958.21 1003.42 956.64 997.75 954.86 992.15C953.75 988.66 952.39 985.26 951.08 981.84C949.99 979.00 948.90 976.15 947.65 973.38C946.10 969.96 944.41 966.60 942.72 963.25C941.91 961.67 940.92 960.18 940.06 958.62C939.75 958.05 939.48 957.41 939.39 956.78C939.26 955.90 939.79 955.65 940.52 956.04C947.43 959.70 953.86 964.05 958.47 970.47C960.67 973.53 962.19 977.09 963.97 980.45C965.95 984.19 966.13 988.40 967.09 992.42C966.83 993.75 966.43 995.03 966.34 996.33C966.05 1000.95 963.83 1004.94 962.32 1009.17C962.15 1009.64 961.48 1010.19 961.02 1010.21C961.02 1010.21 961.01 1010.21 961.01 1010.21C960.65 1010.21 960.08 1009.52 959.93 1009.04M904.65 1004.33C900.26 1000.46 895.01 998.14 889.64 996.07C884.96 994.27 880.29 992.42 875.54 990.84C872.86 989.95 870.03 989.47 867.23 988.97C864.73 988.53 862.18 988.39 859.68 987.95C859.02 987.83 858.25 987.18 857.92 986.56C856.35 983.55 854.85 980.50 853.46 977.40C851.67 973.43 850.00 969.41 848.32 965.40C847.48 963.39 846.66 961.37 845.95 959.31C845.52 958.07 846.27 957.20 847.55 957.29C853.10 957.70 858.46 959.05 863.34 961.66C867.72 964.01 871.91 966.76 875.99 969.59C880.01 972.37 883.84 975.43 887.67 978.47C891.28 981.34 894.25 984.83 896.89 988.60C899.60 992.47 902.33 996.33 904.97 1000.25C905.63 1001.23 905.98 1002.42 906.49 1003.54C906.30 1004.01 906.20 1004.71 905.96 1004.76C905.91 1004.77 905.85 1004.77 905.78 1004.77C905.40 1004.77 904.93 1004.58 904.65 1004.33M794.20 975.76C794.12 974.74 794.17 973.72 794.17 972.70C794.17 971.58 794.11 970.45 794.19 969.34C794.25 968.50 794.56 967.53 795.63 967.87C796.15 968.03 796.82 968.95 796.78 969.47C796.59 971.64 796.21 973.80 795.78 975.94C795.70 976.36 795.08 976.67 794.71 977.03C794.53 976.61 794.23 976.19 794.20 975.76M805.57 983.31C804.11 977.80 805.19 972.60 808.91 967.95C808.99 968.50 809.12 969.04 809.15 969.60C809.30 972.55 809.28 975.52 809.63 978.44C809.97 981.35 810.74 984.22 811.22 987.12C811.43 988.44 811.41 989.81 811.49 991.16C811.28 991.24 811.08 991.32 810.87 991.40C808.14 989.38 806.41 986.50 805.57 983.31M930.10 1029.91C929.78 1029.90 929.29 1029.36 929.19 1028.97C928.07 1024.83 926.59 1020.80 926.26 1016.46C925.92 1011.86 925.42 1007.27 924.99 1002.67C925.20 1002.66 925.42 1002.66 925.63 1002.65C925.63 998.93 925.32 995.17 925.71 991.49C926.18 987.07 927.12 982.69 928.09 978.34C928.46 976.69 929.40 975.16 930.19 973.62C930.68 972.65 931.71 972.84 932.41 974.08C933.64 976.25 934.91 978.40 935.95 980.66C937.95 985.01 939.80 989.41 941.68 993.80C942.31 995.25 942.93 996.71 943.37 998.22C943.56 998.87 943.45 999.74 943.17 1000.38C939.52 1008.95 935.80 1017.48 932.14 1026.05C931.72 1027.02 931.56 1028.11 931.15 1029.09C931.00 1029.46 930.47 1029.91 930.12 1029.91C930.12 1029.91 930.11 1029.91 930.10 1029.91M985.83 1014.38C985.42 1012.88 985.14 1011.34 984.87 1009.80C984.33 1006.70 984.10 1003.52 983.26 1000.51C982.18 996.66 982.48 992.77 982.79 988.98C983.04 985.81 984.38 982.72 985.35 979.64C985.51 979.15 986.29 978.86 986.78 978.47C986.98 979.00 987.35 979.53 987.35 980.07C987.40 985.84 987.38 991.61 987.38 997.38C987.37 997.38 987.35 997.38 987.34 997.38C987.34 1003.00 987.35 1008.62 987.32 1014.24C987.31 1014.72 987.02 1015.21 986.85 1015.69C986.50 1015.26 985.96 1014.87 985.83 1014.38M838.73 1032.82C835.87 1030.31 833.43 1027.46 831.83 1023.96C829.59 1019.07 828.39 1013.96 828.45 1010.22C828.45 1002.53 829.72 996.70 831.48 990.99C832.44 987.89 833.70 984.89 834.91 981.88C835.45 980.51 836.43 978.98 837.93 979.32C839.10 979.59 840.35 980.88 840.94 982.03C842.79 985.63 844.33 989.38 846.01 993.07C846.92 995.05 847.80 997.05 848.84 998.96C849.97 1001.03 850.11 1003.02 849.20 1005.20C848.20 1007.59 847.22 1010.01 846.44 1012.49C845.06 1016.87 843.55 1021.19 843.30 1025.91C843.17 1028.28 841.80 1030.61 840.79 1032.87C840.60 1033.29 840.32 1033.45 840.00 1033.45C839.59 1033.45 839.12 1033.17 838.73 1032.82M822.66 1027.50C817.78 1024.45 812.92 1021.38 808.08 1018.28C804.71 1016.12 803.20 1012.82 802.95 1008.98C802.73 1005.47 802.80 1001.94 802.82 998.42C802.82 996.95 803.25 996.73 804.62 997.20C808.01 998.35 810.30 1000.93 812.56 1003.48C816.61 1008.05 819.64 1013.29 822.44 1018.67C823.83 1021.33 825.28 1023.95 826.69 1026.60C826.93 1027.05 827.26 1027.54 827.25 1028.01C827.23 1028.47 826.84 1028.92 826.54 1029.55C824.99 1028.74 823.78 1028.20 822.66 1027.50M923.49 1051.38C916.41 1045.71 908.95 1040.60 901.37 1035.63C895.94 1032.07 890.03 1029.69 884.06 1027.37C880.15 1025.86 877.60 1022.85 875.50 1019.42C873.82 1016.68 872.25 1013.88 870.70 1011.07C869.19 1008.32 867.71 1005.56 866.34 1002.75C865.32 1000.68 866.12 999.46 868.41 999.52C871.22 999.60 874.07 999.54 876.81 1000.05C880.04 1000.66 883.21 1001.67 886.32 1002.77C892.68 1005.02 898.44 1008.48 903.48 1012.88C907.52 1016.41 911.13 1020.47 914.61 1024.58C917.20 1027.63 919.30 1031.07 920.97 1034.78C922.92 1039.12 924.65 1043.51 925.52 1048.21C925.77 1049.59 926.11 1050.95 926.41 1052.32C926.27 1052.45 926.14 1052.59 926.00 1052.73C925.16 1052.28 924.22 1051.96 923.49 1051.38M971.12 1058.46C970.51 1054.86 969.96 1051.23 969.09 1047.68C968.53 1045.44 967.37 1043.35 966.64 1041.15C965.68 1038.26 965.67 1035.37 966.86 1032.50C968.76 1027.94 970.56 1023.34 972.43 1018.77C973.14 1017.03 973.86 1015.29 974.67 1013.59C975.16 1012.56 976.00 1012.55 976.51 1013.52C977.77 1015.89 979.18 1018.24 980.02 1020.76C981.67 1025.78 981.65 1031.07 982.21 1037.36C981.67 1040.65 980.94 1044.95 980.27 1049.26C979.68 1053.10 978.10 1056.44 975.42 1059.25C974.97 1059.73 974.29 1060.15 973.65 1060.30C973.25 1060.39 972.91 1060.44 972.63 1060.44C971.68 1060.44 971.36 1059.86 971.12 1058.46M856.40 1064.95C855.71 1064.84 854.79 1064.65 854.44 1064.15C853.53 1062.83 852.77 1061.38 852.13 1059.91C851.12 1057.60 850.28 1055.23 849.33 1052.89C848.09 1049.81 847.89 1046.56 847.79 1043.30C847.77 1042.59 847.79 1041.87 847.79 1041.16C847.74 1041.15 847.70 1041.15 847.66 1041.15C847.91 1037.74 847.98 1034.31 848.46 1030.94C848.79 1028.67 849.60 1026.45 850.36 1024.26C851.16 1021.93 852.03 1019.60 853.13 1017.41C853.69 1016.28 854.72 1015.28 855.76 1014.53C857.18 1013.49 858.70 1014.17 859.83 1016.13C861.13 1018.38 862.48 1020.60 863.67 1022.91C864.98 1025.44 866.45 1027.95 867.24 1030.65C867.78 1032.49 867.78 1034.83 867.11 1036.60C865.21 1041.62 862.70 1046.41 860.68 1051.39C859.09 1055.34 857.30 1059.27 857.09 1063.65C857.07 1064.11 856.58 1064.95 856.41 1064.95C856.40 1064.95 856.40 1064.95 856.40 1064.95M937.50 1078.99C937.34 1073.48 937.34 1067.96 937.11 1062.45C936.90 1057.48 936.37 1052.52 936.14 1047.54C936.02 1044.90 935.96 1042.18 936.39 1039.59C936.93 1036.41 937.88 1033.27 938.90 1030.19C939.72 1027.74 940.76 1025.34 941.98 1023.07C943.00 1021.16 944.38 1019.45 945.68 1017.70C945.94 1017.36 946.54 1017.29 946.99 1017.09C947.15 1017.48 947.44 1017.86 947.47 1018.26C947.94 1024.15 948.37 1030.03 948.76 1035.17C948.50 1040.22 948.34 1044.50 948.05 1048.77C947.89 1050.99 947.59 1053.22 947.19 1055.41C946.47 1059.36 945.89 1063.37 944.76 1067.21C943.56 1071.27 941.78 1075.15 940.26 1079.10C940.18 1079.29 940.13 1079.56 939.98 1079.63C939.39 1079.95 938.79 1080.32 938.16 1080.40C938.16 1080.40 938.15 1080.40 938.15 1080.40C937.98 1080.40 937.51 1079.48 937.50 1078.99M845.36 1065.88C843.97 1065.18 842.75 1064.10 841.32 1063.53C836.43 1061.57 831.46 1059.81 826.56 1057.87C823.89 1056.81 821.03 1055.92 818.75 1054.26C815.23 1051.69 813.67 1047.64 812.43 1043.56C811.60 1040.82 810.87 1038.05 810.12 1035.28C809.92 1034.54 809.83 1033.78 809.70 1033.03C809.58 1031.85 810.09 1031.54 811.24 1031.55C814.16 1031.59 816.63 1032.92 819.16 1034.12C823.30 1036.10 826.71 1039.08 830.10 1042.08C833.89 1045.43 837.55 1048.88 840.54 1053.00C843.16 1056.62 845.73 1060.25 847.19 1064.52C847.35 1065.00 847.32 1065.55 847.38 1066.07C847.17 1066.05 846.95 1066.06 846.72 1066.06C846.64 1066.06 846.56 1066.06 846.48 1066.06C846.08 1066.06 845.69 1066.04 845.36 1065.88M925.74 1082.63C922.74 1079.52 919.99 1076.14 916.79 1073.25C913.17 1069.99 909.22 1067.08 905.30 1064.16C899.24 1059.63 894.24 1054.22 890.89 1047.40C890.15 1045.90 889.59 1044.29 889.09 1042.69C888.68 1041.35 889.10 1040.76 890.48 1040.97C892.32 1041.26 894.21 1041.66 895.90 1042.41C900.69 1044.56 905.20 1047.23 909.37 1050.46C914.79 1054.66 919.45 1059.54 923.58 1065.08C927.16 1069.90 927.89 1075.29 928.48 1080.42C928.48 1081.13 928.53 1081.40 928.47 1081.64C928.27 1082.42 928.03 1083.20 927.81 1083.98C927.11 1083.54 926.30 1083.21 925.74 1082.63M801.62 1113.73C800.25 1113.64 800.64 1112.22 800.58 1111.28C800.45 1109.14 800.51 1106.99 800.34 1104.86C799.98 1100.55 799.62 1096.24 799.06 1091.96C798.50 1087.74 797.64 1083.56 797.01 1079.34C796.73 1077.48 796.70 1075.59 796.55 1073.71C796.46 1073.69 796.36 1073.66 796.27 1073.64C796.89 1069.53 797.41 1065.40 798.16 1061.30C798.86 1057.49 799.41 1053.69 799.28 1049.80C799.27 1049.55 799.25 1049.26 799.35 1049.05C799.62 1048.48 799.95 1047.95 800.25 1047.40C800.64 1047.82 801.20 1048.18 801.38 1048.67C802.38 1051.38 803.44 1054.09 804.18 1056.88C805.20 1060.71 806.07 1064.59 806.78 1068.49C807.37 1071.69 808.09 1074.96 807.96 1078.17C807.79 1082.34 806.87 1086.49 806.21 1090.64C805.63 1094.31 804.92 1097.95 804.37 1101.62C803.88 1104.88 803.61 1108.17 803.06 1111.42C802.92 1112.28 802.09 1113.73 801.64 1113.73C801.63 1113.73 801.63 1113.73 801.62 1113.73M962.67 1088.57C960.93 1086.45 959.39 1084.15 957.53 1082.14C955.29 1079.70 954.88 1076.93 954.78 1073.75C954.60 1068.43 955.80 1063.46 957.50 1058.52C957.95 1057.23 958.08 1055.83 958.48 1054.53C958.67 1053.90 959.07 1052.96 959.52 1052.87C960.09 1052.76 961.07 1053.17 961.41 1053.68C963.00 1056.06 964.96 1058.39 965.80 1061.04C966.91 1064.51 967.09 1068.27 967.67 1071.90C967.52 1071.93 967.37 1071.95 967.21 1071.98C967.21 1073.00 967.32 1074.03 967.19 1075.04C966.83 1078.05 966.42 1081.06 965.93 1084.05C965.71 1085.38 965.27 1086.67 964.86 1087.96C964.71 1088.44 964.41 1089.15 964.07 1089.21C964.03 1089.22 963.99 1089.23 963.94 1089.23C963.53 1089.23 962.95 1088.90 962.67 1088.57M862.13 1109.49C861.88 1109.33 861.64 1108.96 861.62 1108.66C861.54 1107.39 861.52 1106.11 861.51 1104.84C861.49 1103.05 861.51 1101.27 861.51 1099.48L861.92 1099.46C861.63 1093.32 861.35 1087.18 861.04 1081.05C861.01 1080.55 860.74 1080.07 860.69 1079.57C860.59 1078.34 860.28 1077.05 860.53 1075.88C861.00 1073.66 861.79 1071.51 862.47 1069.35C863.20 1067.04 864.01 1064.75 864.70 1062.43C865.59 1059.42 867.40 1056.93 869.14 1054.40C869.70 1053.59 870.44 1052.83 871.38 1053.36C871.93 1053.68 872.31 1054.64 872.38 1055.35C872.70 1058.63 873.15 1061.93 873.06 1065.21C872.94 1069.57 872.48 1073.93 871.93 1078.27C871.51 1081.69 870.58 1085.05 870.17 1088.47C869.89 1090.91 868.75 1093.00 868.06 1095.26C867.62 1096.71 867.36 1098.22 866.89 1099.65C866.05 1102.20 865.15 1104.73 864.20 1107.24C863.92 1107.98 863.40 1108.64 862.91 1109.29C862.81 1109.42 862.52 1109.53 862.30 1109.53C862.23 1109.53 862.17 1109.52 862.13 1109.49M978.85 1073.18C978.62 1072.99 978.54 1072.39 978.66 1072.08C979.70 1069.38 980.69 1066.66 981.91 1064.04C982.79 1062.16 983.95 1060.40 985.11 1058.67C985.47 1058.13 986.25 1057.88 986.84 1057.50C987.03 1058.08 987.33 1058.65 987.36 1059.23C987.45 1060.45 987.39 1061.68 987.39 1062.90C987.38 1062.90 987.37 1062.90 987.36 1062.90C987.36 1064.58 987.40 1066.27 987.34 1067.95C987.32 1068.42 987.15 1069.11 986.82 1069.31C984.58 1070.67 982.28 1071.95 979.97 1073.20C979.82 1073.28 979.60 1073.32 979.39 1073.32C979.17 1073.32 978.96 1073.28 978.85 1073.18M851.01 1100.08C849.81 1098.77 848.72 1097.36 847.57 1095.99C843.93 1091.69 839.59 1088.15 835.05 1084.87C832.73 1083.19 831.29 1080.92 830.12 1078.41C828.99 1075.97 827.90 1073.52 826.76 1071.08C826.12 1069.71 825.39 1068.36 824.78 1066.97C824.33 1065.98 825.21 1065.32 826.65 1065.52C829.66 1065.94 832.42 1067.02 835.14 1068.34C840.10 1070.75 844.14 1074.29 847.55 1078.51C849.48 1080.89 851.34 1083.49 852.53 1086.29C853.64 1088.89 853.81 1091.89 854.40 1094.71C854.33 1094.74 854.26 1094.77 854.19 1094.79C854.06 1096.36 854.03 1097.95 853.77 1099.50C853.67 1100.11 853.15 1101.05 852.72 1101.11C852.69 1101.11 852.66 1101.11 852.63 1101.11C852.11 1101.11 851.43 1100.55 851.01 1100.08M871.90 1164.49C871.41 1157.16 871.00 1149.83 870.51 1142.50C870.20 1137.93 869.75 1133.38 869.41 1128.81C869.32 1127.59 869.24 1126.32 869.47 1125.15C869.71 1123.95 870.28 1122.81 870.81 1121.70C872.66 1117.80 874.62 1113.95 876.43 1110.03C878.79 1104.90 879.78 1099.36 880.82 1093.87C882.16 1086.87 882.82 1079.77 883.11 1072.64C883.15 1071.58 883.38 1070.51 883.68 1069.50C883.80 1069.10 884.34 1068.70 884.76 1068.57C884.95 1068.51 885.41 1069.07 885.64 1069.42C887.52 1072.32 887.68 1075.66 888.02 1078.94C888.23 1080.97 888.28 1083.02 888.39 1085.05C888.09 1092.54 888.00 1100.05 887.41 1107.52C887.00 1112.83 886.04 1118.12 885.10 1123.38C884.04 1129.29 882.88 1135.19 881.47 1141.01C880.48 1145.10 879.02 1149.08 877.70 1153.08C876.43 1156.94 875.10 1160.78 873.74 1164.60C873.55 1165.13 873.03 1165.54 872.66 1166.00C872.39 1165.50 871.93 1165.01 871.90 1164.49M967.88 1111.28C968.41 1103.82 969.31 1096.48 974.08 1090.23C976.79 1086.68 979.91 1083.58 983.51 1080.96C983.88 1080.69 984.27 1080.43 984.69 1080.26C986.48 1079.51 987.25 1080.00 987.28 1081.93C987.31 1083.77 987.29 1085.60 987.29 1087.44C987.24 1087.44 987.18 1087.45 987.13 1087.45C987.13 1089.69 987.51 1092.01 987.06 1094.16C986.06 1098.94 984.03 1103.14 979.47 1105.74C976.06 1107.68 972.87 1109.98 969.58 1112.11C969.14 1112.39 968.78 1112.54 968.50 1112.54C968.04 1112.54 967.82 1112.13 967.88 1111.28M918.63 1110.88C917.67 1108.26 916.96 1105.55 916.20 1102.86C915.31 1099.74 914.62 1096.55 913.60 1093.48C912.40 1089.88 910.92 1086.37 909.56 1082.82C909.45 1082.54 909.18 1082.28 909.17 1082.01C909.15 1081.38 909.24 1080.76 909.29 1080.13C909.92 1080.18 910.62 1080.07 911.17 1080.31C916.68 1082.65 920.46 1087.00 923.80 1091.72C925.21 1093.72 926.10 1096.14 926.48 1098.83C925.49 1103.01 924.64 1107.24 923.45 1111.36C923.13 1112.44 921.80 1113.88 920.85 1113.95C920.81 1113.95 920.77 1113.95 920.72 1113.95C919.25 1113.95 919.05 1112.05 918.63 1110.88M806.02 1126.36C806.82 1123.85 807.67 1121.35 808.58 1118.87C809.65 1115.94 810.90 1113.07 811.89 1110.12C813.85 1104.28 815.60 1098.38 815.73 1092.12C815.77 1090.15 816.14 1088.18 816.43 1086.22C816.51 1085.70 816.77 1085.09 817.14 1084.75C817.40 1084.51 818.24 1084.47 818.43 1084.68C820.39 1086.87 822.28 1089.19 823.14 1092.00C823.78 1094.11 823.74 1096.42 824.01 1098.64C824.04 1103.39 822.90 1107.88 820.77 1112.00C818.18 1117.01 815.00 1121.63 810.41 1125.12C809.45 1125.85 808.81 1126.98 807.88 1127.75C807.36 1128.17 806.54 1128.23 805.86 1128.46C805.91 1127.76 805.82 1127.01 806.02 1126.36M884.96 1156.17C885.24 1155.01 885.72 1153.89 886.03 1152.74C887.13 1148.62 888.21 1144.49 889.27 1140.36C890.49 1135.62 891.84 1130.92 892.87 1126.15C894.27 1119.63 895.52 1113.09 895.33 1106.35C895.19 1101.61 895.30 1096.86 895.36 1092.11C895.37 1091.47 895.73 1090.83 895.93 1090.19C896.64 1090.48 897.66 1090.56 898.01 1091.08C899.30 1093.02 900.54 1095.03 901.49 1097.15C902.84 1100.19 904.04 1103.32 905.09 1106.48C905.77 1108.53 906.08 1110.70 906.54 1112.82C906.59 1113.02 906.53 1113.23 906.58 1113.43C907.28 1116.33 908.06 1119.21 908.66 1122.13C908.95 1123.57 908.91 1125.07 909.02 1126.54C909.47 1130.58 907.66 1133.76 905.48 1136.95C901.11 1143.35 895.70 1148.77 889.94 1153.87C888.76 1154.92 887.65 1156.06 886.46 1157.09C886.12 1157.38 885.58 1157.43 885.14 1157.58C885.07 1157.11 884.85 1156.60 884.96 1156.17M959.69 1132.39C956.71 1127.93 955.17 1123.00 954.80 1117.64C954.50 1113.38 953.95 1109.13 953.51 1104.87L953.77 1104.85C953.77 1101.84 953.74 1098.82 953.80 1095.81C953.81 1095.33 954.18 1094.85 954.38 1094.37C954.84 1094.64 955.38 1094.81 955.73 1095.17C957.96 1097.47 958.67 1100.37 959.29 1103.43C960.47 1109.23 959.81 1115.12 960.51 1120.93C960.95 1124.60 961.27 1128.28 961.59 1131.95C961.63 1132.42 961.32 1132.91 961.17 1133.39C960.67 1133.06 959.99 1132.85 959.69 1132.39M837.13 1111.03C837.05 1107.67 836.67 1104.32 836.49 1100.96C836.39 1098.91 837.06 1098.46 838.80 1099.55C842.89 1102.09 846.15 1105.44 848.31 1109.82C851.31 1115.90 851.38 1122.29 849.92 1128.64C848.40 1135.27 844.91 1140.96 839.87 1145.60C839.37 1146.06 838.50 1146.11 837.80 1146.35C837.62 1145.75 837.29 1145.15 837.28 1144.55C837.24 1138.48 837.26 1132.41 837.26 1126.34C837.22 1126.34 837.19 1126.34 837.16 1126.34C837.16 1121.23 837.24 1116.13 837.13 1111.03M937.65 1165.87C936.75 1163.30 935.67 1160.73 935.25 1158.07C933.98 1150.14 932.58 1142.19 933.79 1134.09C934.28 1130.79 934.41 1127.40 935.22 1124.17C936.30 1119.87 937.86 1115.68 939.27 1111.46C939.72 1110.11 940.34 1108.82 940.91 1107.52C941.10 1107.08 941.38 1106.68 941.62 1106.27C941.79 1106.29 941.96 1106.31 942.13 1106.34C942.24 1106.85 942.39 1107.36 942.47 1107.89C944.15 1118.56 943.98 1129.31 943.69 1140.05C943.62 1142.77 942.85 1145.47 942.44 1148.18C941.93 1151.54 941.45 1154.92 940.98 1158.29C940.64 1160.75 940.38 1163.22 939.98 1165.67C939.90 1166.21 939.40 1166.69 939.09 1167.19C938.59 1166.76 937.84 1166.41 937.65 1165.87M975.68 1158.48C975.00 1157.56 974.43 1156.52 974.01 1155.45C972.17 1150.78 970.41 1146.08 968.60 1141.40C965.94 1134.49 967.02 1128.08 971.28 1122.17C973.03 1119.72 975.13 1117.54 977.87 1116.14C978.40 1115.87 979.01 1115.75 979.58 1115.56C980.67 1115.58 981.23 1116.02 980.93 1117.11C977.55 1129.32 977.88 1141.83 977.80 1154.31C977.79 1155.44 977.78 1156.56 977.69 1157.68C977.65 1158.08 977.42 1158.76 977.20 1158.80C977.08 1158.82 976.94 1158.83 976.80 1158.83C976.36 1158.83 975.86 1158.73 975.68 1158.48M794.47 1116.99C794.49 1116.56 794.94 1116.15 795.20 1115.73C795.46 1116.11 795.93 1116.48 795.94 1116.86C796.00 1120.12 796.01 1123.38 795.93 1126.64C795.92 1127.09 795.33 1127.53 795.00 1127.97C794.80 1127.53 794.45 1127.08 794.43 1126.63C794.36 1125.05 794.40 1123.46 794.40 1121.88C794.41 1121.88 794.42 1121.88 794.43 1121.88C794.43 1120.25 794.38 1118.62 794.47 1116.99M794.93 1164.11C794.89 1161.51 794.77 1158.90 794.91 1156.30C795.09 1153.08 796.75 1150.43 798.74 1148.04C802.20 1143.89 805.55 1139.63 809.30 1135.77C813.33 1131.62 818.14 1128.41 823.42 1125.98C824.64 1125.42 825.67 1126.21 825.70 1127.74C825.75 1129.89 825.72 1132.03 825.72 1134.18C825.86 1134.20 826.00 1134.22 826.15 1134.24C825.61 1138.00 825.30 1141.82 824.46 1145.51C823.76 1148.56 821.60 1150.89 819.08 1152.70C815.77 1155.06 812.45 1157.45 808.97 1159.53C805.27 1161.76 801.38 1163.67 797.54 1165.67C797.06 1165.92 796.64 1166.05 796.28 1166.05C795.43 1166.05 794.95 1165.37 794.93 1164.11M856.62 1190.62C856.46 1187.47 856.45 1184.31 856.21 1181.16C856.00 1178.44 855.57 1175.73 855.20 1173.03C854.49 1167.91 853.80 1162.79 853.01 1157.69C852.82 1156.41 852.08 1155.20 851.96 1153.93C851.54 1149.64 853.52 1146.12 855.98 1142.88C857.04 1141.48 858.43 1140.31 859.76 1139.15C861.13 1137.96 862.11 1138.21 862.71 1139.96C863.35 1141.78 863.99 1143.65 864.23 1145.54C864.82 1150.24 865.19 1154.97 865.65 1159.69C865.59 1159.70 865.53 1159.70 865.47 1159.71C865.68 1164.03 866.14 1168.36 866.02 1172.67C865.91 1176.22 865.67 1179.93 864.00 1183.17C862.49 1186.09 860.53 1188.78 858.68 1191.51C858.40 1191.92 857.66 1192.00 857.13 1192.23C856.96 1191.70 856.65 1191.17 856.62 1190.62M869.01 1193.71C869.41 1192.72 869.64 1191.62 870.24 1190.78C874.46 1184.88 878.65 1178.96 883.06 1173.22C886.12 1169.23 889.45 1165.44 892.79 1161.67C895.72 1158.36 898.68 1155.06 901.90 1152.05C904.36 1149.74 907.18 1147.77 909.99 1145.88C911.69 1144.74 912.57 1145.31 912.78 1147.38C913.29 1152.33 913.88 1157.28 914.20 1162.25C914.60 1168.55 911.53 1172.96 906.12 1175.82C901.76 1178.13 897.29 1180.23 892.88 1182.45C887.55 1185.11 882.23 1187.79 876.92 1190.48C875.06 1191.42 873.23 1192.42 871.37 1193.36C870.77 1193.66 870.09 1193.82 869.45 1194.05C869.30 1193.94 869.15 1193.82 869.01 1193.71M927.48 1162.30C924.17 1160.25 922.52 1154.61 924.14 1151.01C924.61 1149.95 925.12 1148.90 925.64 1147.86C925.76 1147.62 926.00 1147.44 926.36 1147.03C926.65 1147.46 926.98 1147.73 927.02 1148.04C927.53 1151.56 927.98 1155.09 928.46 1158.61C928.59 1159.51 928.80 1160.39 928.91 1161.29C928.95 1161.65 928.91 1162.27 928.72 1162.35C928.56 1162.42 928.36 1162.46 928.15 1162.46C927.90 1162.46 927.65 1162.41 927.48 1162.30M953.90 1197.90C952.76 1195.93 951.65 1193.94 950.60 1191.92C949.97 1190.71 949.55 1189.40 948.93 1188.20C947.88 1186.19 947.71 1184.04 947.59 1181.83C947.51 1180.46 947.03 1179.12 946.73 1177.76C946.89 1177.74 947.06 1177.73 947.22 1177.71C947.58 1172.45 947.89 1167.19 948.31 1161.94C948.53 1159.16 948.79 1156.37 949.34 1153.64C949.67 1151.99 950.43 1150.38 951.29 1148.91C952.18 1147.38 953.32 1147.54 954.27 1149.09C955.23 1150.64 956.23 1152.16 957.15 1153.72C959.02 1156.89 960.76 1160.13 962.69 1163.26C964.24 1165.76 963.77 1167.97 962.17 1170.17C959.78 1173.47 958.65 1177.24 957.50 1181.12C956.52 1184.41 956.67 1187.64 956.43 1190.91C956.27 1193.13 955.87 1195.34 955.52 1197.54C955.47 1197.87 955.15 1198.36 954.88 1198.41C954.86 1198.42 954.83 1198.42 954.80 1198.42C954.50 1198.42 954.05 1198.16 953.90 1197.90M794.88 1179.03C794.84 1176.76 795.89 1175.33 797.87 1174.22C802.75 1171.48 807.73 1168.96 813.04 1167.17C815.24 1166.42 817.48 1165.76 819.71 1165.11C820.87 1164.77 821.27 1165.38 821.29 1166.48C821.34 1169.13 820.64 1171.65 819.55 1173.99C818.23 1176.81 816.69 1179.54 815.01 1182.16C813.88 1183.93 812.18 1185.32 811.03 1187.08C809.25 1189.83 806.64 1191.41 803.81 1192.70C801.51 1193.75 799.13 1194.62 796.75 1195.49C795.88 1195.81 794.96 1194.77 794.94 1193.41C794.89 1190.81 794.92 1188.21 794.92 1185.61C794.91 1185.61 794.90 1185.61 794.89 1185.61C794.89 1183.42 794.93 1181.22 794.88 1179.03M837.18 1219.87C836.84 1215.09 836.47 1210.30 835.90 1205.55C835.27 1200.30 834.41 1195.07 833.62 1189.84C833.23 1187.27 832.77 1184.72 832.30 1182.16C831.78 1179.29 832.93 1176.75 834.33 1174.50C835.95 1171.90 838.08 1169.61 840.09 1167.27C840.54 1166.74 841.38 1166.38 842.08 1166.30C842.55 1166.25 843.41 1166.71 843.55 1167.13C844.21 1169.04 844.82 1170.98 845.17 1172.96C845.68 1175.91 846.10 1178.89 846.31 1181.87C846.86 1190.09 847.89 1198.28 847.43 1206.56C847.17 1211.25 845.62 1215.39 843.22 1219.29C841.82 1221.58 840.31 1223.80 838.78 1226.02C838.52 1226.41 837.94 1226.58 837.20 1227.05C837.20 1224.32 837.33 1222.09 837.18 1219.87M945.15 1209.09C942.31 1207.40 939.36 1205.90 936.54 1204.18C933.47 1202.32 930.35 1200.51 927.52 1198.32C925.18 1196.53 923.80 1194.03 923.92 1190.81C924.09 1186.63 923.95 1182.44 924.01 1178.26C924.02 1177.49 924.35 1176.72 924.54 1175.95C925.36 1176.27 926.40 1176.37 926.98 1176.95C929.76 1179.69 932.59 1182.42 935.09 1185.42C939.24 1190.41 943.27 1195.51 947.12 1200.73C949.95 1204.55 952.43 1208.63 954.99 1212.64C955.32 1213.15 955.18 1213.94 955.26 1214.60C955.07 1214.73 954.87 1214.85 954.68 1214.98C951.51 1213.01 948.36 1211.00 945.15 1209.09M971.24 1222.06C968.49 1220.57 966.31 1218.40 964.88 1215.67C962.71 1211.54 962.06 1207.04 962.31 1200.55C962.84 1197.76 963.62 1193.16 964.60 1188.60C965.08 1186.39 965.60 1184.08 966.68 1182.13C967.68 1180.33 969.36 1178.85 970.93 1177.44C972.06 1176.42 973.56 1176.83 974.60 1177.95C976.96 1180.49 978.48 1183.47 979.47 1186.76C979.80 1187.82 980.22 1188.86 980.71 1189.85C981.98 1192.47 981.25 1194.87 980.08 1197.27C978.60 1200.31 976.81 1203.25 975.77 1206.44C974.84 1209.28 974.72 1212.40 974.30 1215.40C974.03 1217.29 973.92 1219.21 973.64 1221.10C973.50 1222.07 973.04 1222.43 972.46 1222.43C972.09 1222.43 971.67 1222.28 971.24 1222.06M847.81 1229.87C848.34 1228.67 848.89 1226.90 849.81 1225.35C851.93 1221.80 853.75 1218.00 856.82 1215.12C859.63 1212.48 862.61 1210.01 865.59 1207.56C867.68 1205.85 869.79 1204.13 872.07 1202.72C876.22 1200.15 880.44 1197.71 884.74 1195.41C887.81 1193.76 890.99 1192.25 894.25 1190.99C897.16 1189.87 900.25 1189.17 903.26 1188.29C904.33 1187.97 905.38 1187.58 906.47 1187.36C909.34 1186.77 910.52 1188.07 909.52 1190.77C907.92 1195.10 906.30 1199.44 904.54 1203.72C903.39 1206.52 902.15 1209.31 900.64 1211.93C898.93 1214.93 896.14 1216.57 892.71 1217.07C889.19 1217.59 885.64 1218.01 882.13 1218.58C876.58 1219.49 871.27 1221.28 866.03 1223.28C863.32 1224.32 860.50 1225.12 857.90 1226.37C855.29 1227.62 852.89 1229.28 850.40 1230.77C850.05 1230.97 849.76 1231.27 849.40 1231.45C848.98 1231.66 848.67 1231.78 848.43 1231.78C847.92 1231.78 847.77 1231.23 847.81 1229.87M819.80 1232.29C817.89 1232.23 817.39 1231.57 816.97 1229.73C816.46 1227.52 815.92 1225.30 815.12 1223.18C813.67 1219.31 812.68 1215.34 813.49 1211.29C814.04 1208.57 815.20 1205.91 816.48 1203.42C817.70 1201.05 819.37 1198.91 820.92 1196.73C822.40 1194.66 824.10 1194.85 825.00 1197.21C825.90 1199.59 826.50 1202.07 827.14 1204.55C828.43 1209.52 827.83 1214.55 828.23 1219.52C828.23 1223.19 828.23 1226.86 828.23 1230.54C828.23 1231.67 827.63 1232.25 826.53 1232.27C825.03 1232.29 823.53 1232.33 822.04 1232.33C821.29 1232.33 820.55 1232.32 819.80 1232.29M794.70 1209.11C794.53 1208.16 794.51 1207.19 794.40 1205.95C794.46 1205.26 794.34 1204.21 794.68 1203.36C794.93 1202.77 795.81 1202.45 796.41 1202.01C796.65 1202.59 797.12 1203.19 797.06 1203.74C796.86 1205.55 796.49 1207.35 796.11 1209.14C796.04 1209.46 795.65 1209.71 795.40 1209.99C795.16 1209.70 794.75 1209.43 794.70 1209.11M980.12 1227.61C980.28 1221.55 981.79 1215.83 984.95 1210.61C985.18 1210.23 985.66 1210.01 986.02 1209.71C986.25 1210.12 986.63 1210.51 986.67 1210.94C986.98 1213.85 987.22 1216.77 987.39 1218.65C987.15 1223.42 986.99 1227.12 986.73 1230.83C986.70 1231.23 986.14 1231.61 985.80 1231.97C985.71 1232.06 985.51 1232.04 985.35 1232.06C984.41 1232.21 983.63 1232.30 982.98 1232.30C980.58 1232.30 980.03 1231.11 980.12 1227.61M935.64 1232.40C932.99 1232.38 932.14 1231.52 931.39 1228.94C930.72 1226.62 929.77 1224.38 928.93 1222.11C928.29 1220.38 927.62 1218.65 927.00 1216.91C926.65 1215.93 927.22 1215.33 928.08 1215.30C931.05 1215.20 934.04 1214.68 936.97 1215.86C939.12 1216.74 941.47 1217.14 943.55 1218.13C946.76 1219.63 949.92 1221.29 952.90 1223.19C956.02 1225.18 958.92 1227.50 961.86 1229.75C962.36 1230.13 962.57 1230.89 962.90 1231.48C962.33 1231.74 961.79 1232.09 961.19 1232.23C960.50 1232.39 959.77 1232.39 959.06 1232.39C955.23 1232.41 951.40 1232.40 947.58 1232.40C947.58 1232.40 947.58 1232.41 947.58 1232.41C945.21 1232.41 942.84 1232.42 940.47 1232.42C938.86 1232.42 937.25 1232.42 935.64 1232.40M911.67 1232.50C908.17 1232.45 907.94 1232.38 908.58 1229.00C909.05 1226.51 910.08 1224.12 910.95 1221.72C911.28 1220.80 911.76 1219.89 912.37 1219.12C913.07 1218.26 913.75 1218.57 913.98 1219.58C914.83 1223.21 915.63 1226.85 916.42 1230.49C916.69 1231.71 916.29 1232.48 914.88 1232.43C914.06 1232.40 913.25 1232.43 912.43 1232.43L912.43 1232.50C912.28 1232.50 912.13 1232.50 911.97 1232.50C911.87 1232.50 911.77 1232.50 911.67 1232.50M871.70 1232.29C871.17 1232.28 870.64 1232.17 870.11 1232.11L869.93 1231.49C870.65 1231.13 871.33 1230.64 872.09 1230.43C874.57 1229.73 877.08 1229.15 879.57 1228.52C879.72 1228.48 879.86 1228.39 880.01 1228.39C884.76 1228.12 889.35 1226.34 894.18 1226.84C895.30 1226.96 895.99 1227.55 895.84 1228.75C895.56 1231.10 894.31 1232.52 891.56 1232.48C886.67 1232.43 881.78 1232.34 876.89 1232.29C876.02 1232.28 875.15 1232.28 874.27 1232.29C873.79 1232.29 873.31 1232.29 872.83 1232.29C872.46 1232.29 872.08 1232.29 871.70 1232.29M800.80 1231.51C801.53 1230.37 802.23 1229.15 803.07 1228.04C803.34 1227.68 804.02 1227.45 804.49 1227.47C805.58 1227.53 807.45 1230.24 807.20 1231.31C807.14 1231.58 806.96 1231.88 806.74 1232.06C806.36 1232.38 805.54 1232.54 804.61 1232.54C803.21 1232.54 801.57 1232.18 800.80 1231.51" fill="#000" fill-rule="evenodd"/></svg>