<svg xmlns="http://www.w3.org/2000/svg" viewBox="601.22 406.22 398.75 800.00"><path d="M601.22 406.22H999.97V1206.22H601.22ZM950.45 548.75C949.51 545.60 948.54 542.45 947.69 539.28C945.92 532.66 944.21 526.02 942.48 519.38C940.26 510.83 938.03 502.28 935.83 493.72C935.69 493.18 935.74 492.59 935.71 492.03C935.61 492.00 935.52 491.98 935.42 491.95C936.53 487.79 937.65 483.63 938.75 479.46C941.08 470.57 943.38 461.68 945.73 452.80C947.17 447.37 948.73 441.97 950.14 436.53L955.11 436.53C955.03 436.81 954.94 437.08 954.86 437.35C952.88 444.70 950.95 452.06 949.00 459.41C947.31 465.76 945.56 472.10 943.93 478.47C942.77 483.01 941.05 487.56 940.91 492.15C940.80 496.14 942.48 500.20 943.49 504.20C944.94 509.94 946.50 515.64 948.00 521.37C950.29 530.08 952.55 538.81 954.86 547.52C955.01 548.09 955.22 548.68 955.27 549.21L950.63 549.21C950.57 549.06 950.50 548.91 950.45 548.75M919.52 548.90C917.74 542.87 916.27 536.75 914.70 530.66C913.05 524.30 911.41 517.93 909.72 511.58C908.09 505.41 906.26 499.28 904.82 493.07C904.48 491.58 905.26 489.78 905.70 488.16C908.61 477.30 911.60 466.45 914.50 455.58C916.16 449.33 917.62 443.03 919.34 436.80C919.36 436.71 919.40 436.62 919.43 436.53L924.19 436.53C924.17 436.73 924.13 436.93 924.09 437.13C923.45 439.97 922.62 442.77 921.89 445.59C920.54 450.77 919.22 455.96 917.87 461.14C916.56 466.14 915.24 471.13 913.91 476.12C912.57 481.11 911.00 486.05 909.95 491.09C909.58 492.89 910.31 494.97 910.79 496.86C913.12 506.06 915.51 515.23 917.94 524.40C919.81 531.49 921.78 538.55 923.69 545.63C923.91 546.44 924.14 547.27 924.19 548.09C924.21 548.45 924.22 548.84 924.19 549.21L919.66 549.21C919.60 549.11 919.55 549.00 919.52 548.90M888.85 548.43C887.31 543.40 885.93 538.33 884.59 533.25C882.87 526.71 881.30 520.14 879.59 513.60C877.97 507.42 875.94 501.33 874.73 495.08C874.16 492.16 874.73 488.87 875.42 485.90C876.99 479.24 879.00 472.68 880.74 466.06C883.25 456.54 885.71 447.00 888.13 437.45C888.22 437.11 888.31 436.82 888.41 436.53L893.50 436.53C893.37 437.29 893.23 438.05 893.03 438.80C891.52 444.42 889.91 450.01 888.42 455.64C886.02 464.71 883.69 473.80 881.33 482.88C880.98 484.24 880.91 485.74 880.29 486.97C878.16 491.15 879.44 495.20 880.51 499.25C882.63 507.33 884.84 515.38 886.99 523.45C889.27 531.99 891.53 540.54 893.83 549.21L889.13 549.21C889.03 548.97 888.94 548.72 888.85 548.43M857.91 548.30C855.83 540.10 853.69 531.92 851.53 523.74C849.88 517.47 848.20 511.20 846.49 504.95C845.51 501.32 844.41 497.72 843.46 494.08C843.23 493.19 843.14 492.15 843.36 491.27C844.91 485.18 846.56 479.11 848.16 473.03C850.18 465.42 852.17 457.80 854.18 450.18C855.38 445.63 856.59 441.09 857.77 436.53L862.73 436.53C862.70 436.66 862.67 436.79 862.64 436.92C860.81 443.92 858.97 450.92 857.15 457.92C855.41 464.65 853.71 471.39 851.94 478.10C850.93 481.92 849.81 485.70 848.78 489.50C848.55 490.31 848.48 491.16 848.29 492.35C849.30 496.53 850.32 501.02 851.48 505.47C853.75 514.20 856.08 522.92 858.41 531.63C859.77 536.72 861.16 541.79 862.53 546.88C862.74 547.64 863.04 548.48 863.00 549.21L858.24 549.21C858.11 548.93 858.00 548.64 857.91 548.30M826.76 546.96C824.60 538.48 822.28 530.05 820.05 521.60C818.64 516.24 817.28 510.87 815.88 505.51C814.77 501.24 813.28 497.03 812.66 492.69C812.34 490.45 813.47 487.97 814.07 485.64C815.84 478.75 817.66 471.87 819.49 464.99C821.19 458.65 822.93 452.33 824.63 445.99C825.35 443.27 826.06 440.53 826.69 437.79C826.80 437.32 826.91 436.90 827.03 436.53L831.92 436.53C831.23 439.28 830.55 442.03 829.83 444.77C827.17 454.86 824.49 464.94 821.83 475.03C820.37 480.57 818.56 486.06 817.64 491.69C817.24 494.17 818.60 496.96 819.27 499.58C821.30 507.51 823.36 515.42 825.44 523.33C827.42 530.87 829.46 538.40 831.41 545.95C831.68 547.02 832.16 548.21 831.91 549.21L827.55 549.21C827.25 548.59 826.98 547.85 826.76 546.96M792.90 535.06C790.90 527.61 788.85 520.19 786.85 512.75C785.22 506.66 783.30 500.63 782.16 494.46C781.66 491.76 782.52 488.68 783.24 485.90C786.04 475.10 789.06 464.36 791.92 453.58C793.42 447.98 794.81 442.34 796.28 436.53L801.09 436.53C800.21 440.20 799.39 443.68 798.49 447.11C796.23 455.83 793.91 464.54 791.60 473.25C790.33 478.06 789.20 482.91 787.71 487.66C786.50 491.50 787.28 495.13 788.22 498.78C790.22 506.60 792.31 514.40 794.40 522.20C796.36 529.54 798.38 536.87 800.37 544.21C800.69 545.39 800.95 546.58 801.25 547.77C801.36 548.24 801.51 548.74 801.55 549.21L796.62 549.21C795.38 544.49 794.17 539.77 792.90 535.06M765.65 548.78C764.35 544.06 763.14 539.32 761.91 534.59C760.23 528.14 758.58 521.67 756.89 515.22C754.93 507.77 752.94 500.33 750.97 492.89C750.90 492.61 750.90 492.32 750.86 492.06C751.52 489.59 752.18 487.15 752.82 484.70C755.52 474.44 758.21 464.18 760.91 453.93C762.41 448.20 763.91 442.48 765.48 436.78C765.51 436.70 765.54 436.62 765.57 436.53L770.45 436.53C770.45 436.72 770.44 436.90 770.40 437.05C768.89 443.15 767.22 449.22 765.60 455.30C763.91 461.65 762.21 468.00 760.53 474.36C759.21 479.36 758.21 484.47 756.54 489.35C755.16 493.40 757.05 496.76 757.94 500.33C759.84 507.98 761.98 515.58 764.00 523.21C765.75 529.84 767.46 536.48 769.20 543.11C769.58 544.57 770.02 546.00 770.37 547.46C770.51 548.04 770.63 548.66 770.59 549.21L765.81 549.21C765.75 549.07 765.69 548.93 765.65 548.78M734.07 548.23C732.27 541.72 730.67 535.15 728.92 528.61C726.98 521.35 724.83 514.14 723.03 506.84C721.74 501.67 720.26 496.41 720.04 491.14C719.89 487.26 721.55 483.28 722.56 479.38C724.89 470.39 727.34 461.44 729.70 452.46C731.03 447.38 732.30 442.29 733.56 437.20C733.62 436.96 733.70 436.75 733.77 436.53L738.88 436.53C738.01 439.78 737.13 443.04 736.27 446.32C734.29 453.94 732.32 461.57 730.35 469.19C728.77 475.29 727.70 481.57 725.46 487.41C723.71 492.00 725.14 495.90 726.16 499.99C728.66 510.02 731.34 520.00 733.99 529.98C735.69 536.36 737.46 542.72 739.23 549.21L734.39 549.21C734.28 548.92 734.17 548.60 734.07 548.23M703.34 548.58C702.43 545.12 701.50 541.67 700.59 538.21C698.88 531.68 697.16 525.14 695.46 518.60C693.77 512.06 692.09 505.51 690.41 498.97C690.32 498.60 690.30 498.21 690.14 497.87C688.60 494.67 688.49 491.49 689.48 488.02C692.07 478.91 694.37 469.71 696.80 460.56C698.90 452.65 701.01 444.74 703.19 436.53L708.13 436.53C708.12 436.59 708.11 436.65 708.09 436.72C706.92 441.16 705.72 445.61 704.55 450.06C702.15 459.23 699.76 468.41 697.36 477.58C696.41 481.21 695.80 484.99 694.38 488.43C693.07 491.61 694.01 494.40 694.75 497.24C697.56 508.07 700.53 518.84 703.42 529.65C705.00 535.54 706.63 541.43 708.03 547.37C708.15 547.85 708.07 548.57 707.89 549.21L703.57 549.21C703.48 549.01 703.40 548.80 703.34 548.58M672.46 548.37C670.75 542.12 669.23 535.83 667.60 529.56C665.96 523.20 664.28 516.85 662.60 510.51C661.02 504.52 659.27 498.57 657.90 492.53C657.57 491.04 658.38 489.25 658.80 487.64C661.42 477.56 664.05 467.49 666.73 457.43C668.51 450.73 670.33 444.04 672.21 437.37C672.29 437.06 672.38 436.79 672.47 436.53L677.34 436.53C676.36 440.28 675.39 444.03 674.41 447.77C672.02 456.84 669.61 465.91 667.23 474.99C665.77 480.53 664.20 486.04 663.01 491.63C662.66 493.25 663.31 495.14 663.75 496.84C666.09 505.83 668.50 514.80 670.90 523.78C673.18 532.27 675.48 540.75 677.76 549.21L672.76 549.21C672.65 548.95 672.54 548.68 672.46 548.37M641.94 548.72C639.83 540.24 637.43 531.83 635.15 523.39C632.58 513.87 629.96 504.35 627.52 494.80C627.12 493.21 627.19 491.34 627.61 489.74C630.42 478.94 633.43 468.19 636.29 457.41C638.11 450.55 639.83 443.66 641.64 436.53L646.77 436.53C646.76 436.58 646.76 436.62 646.75 436.67C643.56 448.36 640.31 460.04 637.12 471.73C635.49 477.71 633.64 483.65 632.55 489.73C632.04 492.54 632.80 495.72 633.53 498.60C636.41 510.08 639.49 521.51 642.53 532.96C643.84 537.86 645.17 542.76 646.57 547.65C646.72 548.19 646.87 548.73 646.89 549.21L642.10 549.21C642.04 549.05 641.98 548.90 641.94 548.72M954.18 673.07C956.36 664.72 958.79 656.43 961.00 648.09C963.33 639.30 965.16 630.35 967.88 621.69C969.28 617.21 967.58 613.51 966.67 609.62C964.53 600.47 961.98 591.43 959.54 582.35C957.79 575.83 955.95 569.32 954.19 562.80C954.00 562.09 953.87 561.34 954.07 560.73L958.84 560.73C958.96 560.97 959.06 561.24 959.14 561.57C962.63 575.22 966.27 588.82 969.85 602.44C971.03 606.89 972.21 611.34 973.37 615.79C973.53 616.42 973.59 617.09 973.71 617.86C973.41 619.43 973.19 621.11 972.74 622.74C970.71 630.07 968.51 637.35 966.57 644.71C964.25 653.51 962.13 662.37 959.90 671.20C959.63 672.24 959.46 673.47 958.90 674.27L954.34 674.27C954.18 673.84 954.09 673.43 954.18 673.07M924.86 667.80C927.46 658.10 930.17 648.43 932.74 638.72C934.45 632.28 936.04 625.81 937.53 619.32C937.85 617.92 937.76 616.30 937.39 614.90C933.84 601.26 930.18 587.64 926.56 574.01C925.38 569.57 924.23 565.12 923.09 560.73L927.72 560.73C927.92 561.11 928.09 561.54 928.24 562.09C930.05 568.70 931.66 575.37 933.44 581.99C935.39 589.26 937.48 596.48 939.44 603.75C940.55 607.83 941.86 611.90 942.41 616.07C942.75 618.67 942.11 621.51 941.45 624.12C938.53 635.68 935.45 647.20 932.40 658.72C931.13 663.54 929.83 668.34 928.46 673.13C928.33 673.56 928.22 673.94 928.10 674.27L923.40 674.27C923.86 672.12 924.29 669.94 924.86 667.80M894.85 665.24C896.57 658.62 898.28 651.99 900.03 645.38C901.71 639.03 903.43 632.69 905.16 626.36C905.82 623.91 906.61 621.50 907.23 619.04C907.42 618.25 907.40 617.31 907.19 616.51C905.23 609.36 903.13 602.24 901.23 595.07C899.19 587.35 897.33 579.59 895.35 571.85C894.58 568.85 893.67 565.89 892.88 562.90C892.69 562.18 892.62 561.45 892.53 560.73L897.03 560.73C897.35 561.25 897.62 561.93 897.85 562.84C900.36 572.47 903.01 582.08 905.55 591.70C907.79 600.15 910.05 608.58 912.08 617.08C912.42 618.50 911.80 620.23 911.40 621.76C909.22 630.02 906.93 638.25 904.74 646.51C902.41 655.32 900.10 664.13 897.84 672.95C897.71 673.46 897.59 673.90 897.45 674.27L892.54 674.27C893.33 671.19 894.08 668.20 894.85 665.24M862.03 673.18C864.33 664.56 866.57 655.92 868.85 647.30C871.23 638.31 873.71 629.35 875.96 620.34C876.38 618.68 876.26 616.71 875.83 615.03C873.04 604.29 870.07 593.61 867.22 582.89C865.38 576.00 863.63 569.08 861.84 562.17C861.69 561.59 861.67 561.11 861.79 560.73L866.27 560.73C866.41 560.93 866.53 561.14 866.59 561.36C869.69 572.68 872.70 584.02 875.70 595.36C877.52 602.26 879.47 609.14 880.95 616.12C881.41 618.27 880.77 620.78 880.19 623.00C877.00 635.18 873.66 647.31 870.41 659.47C869.10 664.38 867.78 669.28 866.69 674.24C866.69 674.25 866.69 674.26 866.68 674.27L861.77 674.27C861.83 673.92 861.93 673.55 862.03 673.18M834.22 661.40C836.26 653.61 838.37 645.84 840.48 638.06C842.25 631.55 844.37 625.11 845.71 618.51C846.17 616.26 844.79 613.62 844.16 611.18C841.74 601.82 839.32 592.46 836.83 583.12C834.86 575.70 832.79 568.31 830.71 560.73L835.60 560.73C835.89 561.19 836.13 561.76 836.32 562.49C839.16 573.40 841.91 584.32 844.77 595.22C846.46 601.66 848.31 608.06 850.05 614.49C851.35 619.25 849.23 623.54 848.10 627.96C846.38 634.68 844.60 641.39 842.82 648.09C841.14 654.44 839.40 660.78 837.73 667.13C837.23 669.03 836.87 670.98 836.41 672.90C836.28 673.43 836.13 673.87 835.96 674.27L831.06 674.27C832.10 669.98 833.10 665.68 834.22 661.40M800.50 672.78C803.48 661.44 806.47 650.11 809.47 638.78C811.13 632.53 812.86 626.30 814.47 620.04C814.77 618.89 814.99 617.55 814.70 616.43C811.87 605.62 808.90 594.85 806.01 584.06C804.10 576.89 802.24 569.72 800.39 562.54C800.22 561.90 800.14 561.25 800.30 560.73L804.85 560.73C805.02 560.99 805.17 561.29 805.27 561.65C806.27 565.18 807.18 568.73 808.12 572.27C810.44 580.98 812.75 589.69 815.06 598.41C816.68 604.48 818.29 610.56 819.89 616.64C819.99 617.00 819.96 617.39 820.01 618.01C819.33 620.60 818.59 623.41 817.86 626.22C814.57 638.86 811.30 651.50 808.00 664.13C807.12 667.49 806.19 670.84 805.21 674.17C805.20 674.21 805.18 674.23 805.17 674.27L800.24 674.27C800.25 673.79 800.37 673.27 800.50 672.78M772.20 663.50C773.90 656.77 775.65 650.06 777.44 643.35C779.19 636.84 780.89 630.31 782.84 623.85C784.40 618.71 783.43 613.88 782.03 608.90C779.13 598.59 776.55 588.19 773.83 577.83C772.32 572.10 770.81 566.38 769.32 560.73L773.94 560.73C774.11 561.07 774.26 561.44 774.39 561.92C776.53 569.52 778.48 577.17 780.51 584.79C782.50 592.24 784.49 599.68 786.48 607.12C787.26 610.02 788.48 612.89 788.69 615.83C788.89 618.66 788.31 621.64 787.60 624.43C785.28 633.63 782.75 642.78 780.30 651.95C778.36 659.21 776.49 666.49 774.44 673.71C774.38 673.92 774.31 674.09 774.25 674.27L769.65 674.27C770.48 670.70 771.29 667.09 772.20 663.50M740.19 665.33C742.18 657.51 744.19 649.69 746.27 641.90C748.23 634.56 750.35 627.26 752.27 619.91C752.60 618.63 752.56 617.10 752.22 615.81C750.02 607.16 747.68 598.54 745.40 589.91C743.71 583.55 742.01 577.19 740.34 570.82C739.46 567.45 738.63 564.07 737.78 560.73L742.35 560.73C742.64 561.20 742.88 561.80 743.07 562.55C745.66 572.36 748.39 582.12 751.00 591.91C753.25 600.36 755.74 608.76 757.41 617.32C757.95 620.10 756.36 623.34 755.57 626.33C753.63 633.68 751.53 640.99 749.59 648.35C747.32 656.97 745.22 665.64 742.87 674.24C742.87 674.25 742.86 674.26 742.86 674.27L738.04 674.27C738.75 671.25 739.43 668.27 740.19 665.33M707.16 674.01C708.62 667.99 710.29 662.03 711.88 656.04C713.87 648.51 715.82 640.97 717.80 633.43C718.88 629.35 720.14 625.30 720.97 621.17C721.39 619.05 721.43 616.68 720.95 614.58C719.19 606.89 717.19 599.26 715.17 591.64C713.26 584.37 711.19 577.15 709.21 569.90C708.47 567.18 707.66 564.47 707.16 561.71C707.12 561.46 707.28 561.09 707.53 560.73L711.84 560.73C711.88 560.83 711.92 560.91 711.95 561.01C713.16 565.56 714.40 570.09 715.60 574.63C717.59 582.08 719.55 589.53 721.53 596.97C723.17 603.15 724.97 609.29 726.37 615.52C726.80 617.44 726.44 619.67 725.95 621.64C723.53 631.30 720.97 640.92 718.41 650.55C716.32 658.41 714.16 666.27 711.99 674.27L707.17 674.27C707.15 674.17 707.14 674.08 707.16 674.01M682.35 651.38C684.70 642.41 686.80 633.36 689.57 624.51C691.04 619.79 690.82 615.55 689.46 610.90C686.80 601.81 684.63 592.58 682.23 583.41C680.59 577.14 678.90 570.89 677.27 564.62C676.93 563.33 676.72 562.01 676.48 560.73L680.93 560.73C681.24 561.22 681.50 561.86 681.71 562.69C683.96 571.42 686.32 580.12 688.61 588.84C690.93 597.65 693.20 606.47 695.57 615.26C696.54 618.89 695.04 622.15 694.23 625.47C692.02 634.39 689.58 643.24 687.23 652.13C685.34 659.29 683.48 666.47 681.54 673.62C681.47 673.86 681.40 674.06 681.32 674.27L676.39 674.27C678.40 666.53 680.36 658.95 682.35 651.38M645.78 673.12C648.00 664.79 650.40 656.50 652.62 648.17C654.90 639.66 656.73 631.01 659.34 622.61C660.92 617.55 659.13 613.16 658.05 608.59C656.54 602.20 654.67 595.89 652.98 589.54C651.02 582.19 649.10 574.84 647.15 567.50C646.74 565.96 646.04 564.46 645.90 562.90C645.84 562.27 645.95 561.40 646.20 560.73L650.21 560.73C650.32 560.92 650.42 561.12 650.50 561.35C651.26 563.57 651.86 565.85 652.45 568.12C655.09 578.11 657.68 588.12 660.31 598.11C661.88 604.11 663.49 610.09 665.06 616.09C665.20 616.63 665.20 617.21 665.29 618.02C665.03 619.36 664.82 620.95 664.39 622.48C662.72 628.55 660.91 634.58 659.27 640.66C657.54 647.10 655.97 653.57 654.30 660.03C653.13 664.57 651.96 669.11 650.68 673.63C650.62 673.83 650.54 674.05 650.45 674.27L645.73 674.27C645.68 673.86 645.70 673.44 645.78 673.12M947.77 790.62C945.42 781.80 943.11 772.98 940.77 764.17C939.16 758.08 937.52 752.00 935.93 745.90C935.74 745.18 935.76 744.40 935.64 743.22C936.30 740.41 936.97 737.19 937.81 734.02C939.16 728.95 940.66 723.92 942.00 718.84C943.39 713.58 944.64 708.27 946.01 703.00C947.39 697.74 949.02 692.53 950.20 687.22C950.33 686.60 950.53 686.14 950.77 685.80L955.14 685.80C955.47 686.43 955.10 687.34 954.88 688.22C952.87 695.95 950.98 703.71 948.95 711.42C947.06 718.61 945.02 725.76 943.06 732.92C942.29 735.73 941.15 738.52 940.90 741.37C940.68 743.92 941.20 746.61 941.84 749.13C944.42 759.33 947.15 769.50 949.86 779.66C951.58 786.11 953.41 792.52 955.05 798.99C955.11 799.23 955.09 799.57 955.01 799.91L950.35 799.91C949.47 796.82 948.60 793.72 947.77 790.62M919.26 798.98C916.97 790.35 914.59 781.74 912.34 773.10C910.02 764.18 907.96 755.19 905.47 746.32C904.02 741.15 906.57 736.81 907.66 732.18C909.52 724.22 911.69 716.35 913.75 708.44C915.61 701.27 917.41 694.09 919.44 686.97C919.58 686.47 919.78 686.09 920.03 685.80L924.70 685.80C922.87 692.77 921.10 699.40 919.39 706.04C916.73 716.32 914.11 726.60 911.47 736.88C911.38 737.24 911.33 737.64 911.16 737.97C909.42 741.27 909.69 744.66 910.62 748.12C913.49 758.73 916.31 769.36 919.15 779.98C920.75 785.96 922.38 791.94 923.93 797.94C924.09 798.58 924.30 799.28 924.26 799.91L919.62 799.91C919.48 799.62 919.35 799.32 919.26 798.98M888.10 798.14C885.38 787.29 882.54 776.46 879.73 765.63C877.97 758.91 875.92 752.25 874.53 745.45C874.01 742.95 874.73 740.06 875.40 737.48C877.93 727.76 880.74 718.11 883.33 708.41C885.04 701.98 886.58 695.51 888.15 689.04C888.52 687.50 888.91 686.44 889.45 685.80L893.95 685.80C892.73 690.52 891.52 695.30 890.27 700.07C887.92 708.98 885.53 717.87 883.19 726.78C882.18 730.60 881.65 734.60 880.16 738.21C878.34 742.66 879.66 746.63 880.74 750.77C882.77 758.59 884.71 766.42 886.77 774.22C888.67 781.39 890.68 788.53 892.63 795.69C893.00 797.06 893.35 798.46 893.71 799.91L888.72 799.91C888.49 799.42 888.28 798.85 888.10 798.14M857.93 799.84C854.69 787.29 851.31 774.78 847.99 762.26C846.46 756.45 844.58 750.70 843.58 744.80C843.13 742.12 844.33 739.12 845.01 736.32C846.42 730.59 848.01 724.91 849.49 719.20C852.00 709.49 854.49 699.78 857.00 690.08C857.28 688.99 857.76 687.94 857.91 686.84C857.98 686.39 858.10 686.06 858.27 685.80L862.67 685.80C862.95 686.30 862.95 686.98 862.81 687.64C862.35 689.84 861.62 691.99 861.05 694.17C858.32 704.53 855.59 714.89 852.87 725.26C851.42 730.79 849.98 736.34 848.56 741.88C848.42 742.42 848.44 743.01 848.39 743.57L848.14 743.64C848.84 746.27 849.54 748.89 850.22 751.53C852.95 762.17 855.64 772.82 858.41 783.46C859.73 788.55 861.17 793.61 862.56 798.68C862.67 799.09 862.78 799.52 862.81 799.91L857.95 799.91C857.94 799.88 857.93 799.87 857.93 799.84M826.88 798.51C824.64 790.26 822.56 781.97 820.39 773.71C818.75 767.44 817.10 761.17 815.41 754.91C814.47 751.38 812.91 747.91 812.64 744.33C812.42 741.48 813.68 738.50 814.41 735.61C816.39 727.71 818.39 719.82 820.47 711.95C822.01 706.15 823.69 700.38 825.27 694.59C825.84 692.51 826.34 690.41 826.81 688.31C827.08 687.13 827.41 686.31 827.92 685.80L832.22 685.80C831.78 688.01 831.42 690.27 830.85 692.46C828.82 700.18 826.69 707.88 824.63 715.60C822.23 724.56 819.78 733.51 817.56 742.52C817.22 743.93 817.91 745.65 818.31 747.17C821.46 759.16 824.67 771.13 827.83 783.12C829.29 788.66 830.66 794.22 832.05 799.77C832.06 799.81 832.06 799.86 832.07 799.91L827.36 799.91C827.19 799.52 827.03 799.07 826.88 798.51M796.34 799.04C794.23 791.44 792.33 783.78 790.29 776.15C788.31 768.71 786.25 761.28 784.25 753.84C783.47 750.93 782.43 748.05 782.09 745.09C781.85 743.04 782.42 740.82 782.93 738.76C785.60 728.01 788.32 717.28 791.12 706.57C792.83 700.04 794.79 693.57 796.46 687.03C796.59 686.50 796.79 686.11 797.01 685.80L801.40 685.80C801.80 686.49 801.29 687.50 801.06 688.40C797.86 700.77 794.70 713.15 791.49 725.51C790.24 730.34 788.68 735.09 787.69 739.96C787.19 742.45 787.17 745.25 787.76 747.71C790.10 757.58 792.75 767.38 795.31 777.19C797.26 784.64 799.25 792.08 801.20 799.53C801.24 799.65 801.25 799.78 801.27 799.91L796.61 799.91C796.52 799.65 796.43 799.37 796.34 799.04M765.65 799.62C763.42 791.28 761.27 782.91 759.07 774.56C757.12 767.11 755.16 759.66 753.19 752.22C752.44 749.40 751.64 746.61 750.86 743.82C751.53 740.97 752.13 738.13 752.87 735.33C756.11 723.10 759.40 710.89 762.65 698.66C763.64 694.95 764.58 691.23 765.50 687.50C765.67 686.81 766.00 686.23 766.41 685.80L770.26 685.80C770.85 686.58 770.47 687.66 770.21 688.70C767.88 697.70 765.60 706.71 763.24 715.70C761.44 722.60 760.01 729.66 757.53 736.31C755.47 741.82 756.64 746.84 757.90 751.98C759.79 759.64 761.96 767.22 764.01 774.84C766.14 782.72 768.33 790.58 770.32 798.49C770.41 798.87 770.34 799.40 770.18 799.91L765.76 799.91C765.72 799.81 765.68 799.73 765.65 799.62M733.58 798.58C730.62 787.21 727.64 775.86 724.66 764.50C723.11 758.60 721.18 752.76 720.13 746.78C719.58 743.66 720.17 740.20 720.90 737.04C722.76 729.01 724.94 721.05 727.09 713.09C729.07 705.76 731.17 698.46 733.21 691.13C733.53 689.96 733.68 688.73 734.06 687.58C734.32 686.81 734.58 686.22 734.89 685.80L739.22 685.80C738.29 689.74 737.43 693.76 736.39 697.72C733.78 707.71 731.10 717.68 728.43 727.66C727.39 731.56 726.50 735.52 725.18 739.32C723.85 743.21 725.08 746.79 726.00 750.38C728.46 759.92 731.17 769.40 733.68 778.93C735.51 785.85 737.22 792.82 739.00 799.91L734.06 799.91C733.88 799.52 733.72 799.10 733.58 798.58M697.74 778.19C695.90 771.18 693.96 764.21 692.08 757.21C690.96 753.04 689.43 748.91 688.91 744.66C688.59 742.02 689.70 739.16 690.37 736.45C691.84 730.53 693.45 724.65 694.98 718.74C697.47 709.12 699.94 699.49 702.44 689.87C702.73 688.78 702.86 687.42 703.59 686.73C704.02 686.31 704.59 686.03 705.19 685.80L707.39 685.80C707.78 686.63 708.26 687.49 708.08 688.18C705.91 696.55 703.47 704.84 701.27 713.20C698.96 722.02 696.83 730.88 694.60 739.71C694.26 741.07 693.83 742.40 693.45 743.73C694.03 745.93 694.56 748.01 695.12 750.09C697.07 757.44 699.04 764.79 700.99 772.14C702.68 778.49 704.34 784.86 706.02 791.22C706.72 793.85 707.55 796.46 708.05 799.13C708.09 799.35 708.05 799.62 707.97 799.91L703.32 799.91C701.43 792.67 699.64 785.42 697.74 778.19M672.33 798.79C670.07 790.45 667.98 782.07 665.79 773.72C664.14 767.45 662.45 761.19 660.76 754.93C659.80 751.40 658.58 747.92 657.91 744.34C657.62 742.81 658.36 741.06 658.77 739.45C662.01 726.92 665.27 714.41 668.54 701.89C669.77 697.18 671.03 692.47 672.30 687.77C672.55 686.87 672.85 686.23 673.28 685.80L677.66 685.80C676.53 690.58 675.51 695.23 674.32 699.83C672.62 706.37 670.78 712.87 669.03 719.40C666.99 727.01 664.88 734.60 663.06 742.27C662.68 743.87 663.27 745.78 663.70 747.48C665.70 755.50 667.75 763.51 669.89 771.49C671.84 778.74 673.95 785.95 675.91 793.20C676.52 795.41 676.96 797.67 677.43 799.91L672.71 799.91C672.57 799.58 672.44 799.22 672.33 798.79M639.29 790.15C637.55 783.81 635.79 777.48 634.11 771.12C632.74 765.96 631.50 760.76 630.16 755.58C629.31 752.31 628.15 749.10 627.59 745.78C627.25 743.83 627.57 741.66 628.03 739.70C629.14 734.95 630.53 730.27 631.75 725.55C633.05 720.47 634.24 715.36 635.58 710.28C637.34 703.57 639.20 696.89 641.04 690.20C641.26 689.38 641.68 688.62 641.91 687.81C642.16 686.91 642.39 686.26 642.67 685.80L647.01 685.80C646.30 688.87 645.64 692.02 644.82 695.12C642.88 702.48 640.81 709.80 638.86 717.16C636.86 724.69 634.78 732.20 633.09 739.80C632.52 742.34 632.55 745.22 633.14 747.75C635.11 756.25 637.45 764.67 639.67 773.11C641.31 779.38 642.97 785.64 644.65 791.89C645.25 794.16 646.08 796.38 646.52 798.67C646.59 799.01 646.57 799.46 646.50 799.91L642.00 799.91C641.06 796.67 640.18 793.41 639.29 790.15M956.01 916.40C958.04 908.69 960.10 900.99 962.17 893.29C964.22 885.68 966.47 878.12 968.24 870.44C968.70 868.44 967.86 866.05 967.32 863.91C964.77 853.90 962.15 843.91 959.48 833.93C957.57 826.76 955.54 819.61 953.58 812.46C953.48 812.12 953.45 811.77 953.40 811.43L958.13 811.43C958.48 811.92 958.76 812.56 958.98 813.41C962.39 826.70 965.75 839.99 969.18 853.28C970.35 857.82 971.53 862.37 972.95 866.85C974.11 870.52 972.23 873.68 971.54 876.99C970.46 882.13 968.74 887.13 967.38 892.22C965.36 899.74 963.41 907.29 961.44 914.83C960.65 917.83 959.84 920.82 959.11 923.84C958.86 924.87 958.62 925.62 958.26 926.12L953.61 926.12C954.43 922.79 955.18 919.58 956.01 916.40M923.31 923.99C925.37 916.39 927.23 908.73 929.26 901.11C931.21 893.76 933.33 886.46 935.27 879.10C936.15 875.75 937.30 872.34 937.35 868.95C937.39 865.84 936.22 862.69 935.41 859.60C933.09 850.68 930.70 841.79 928.32 832.90C926.65 826.64 924.96 820.38 923.26 814.13C923.00 813.18 922.67 812.18 923.05 811.43L927.41 811.43C927.63 811.75 927.81 812.13 927.94 812.60C929.16 817.13 930.33 821.69 931.53 826.23C933.52 833.76 935.51 841.30 937.51 848.83C939.15 855.01 940.81 861.18 942.44 867.36C942.58 867.90 942.54 868.49 942.63 869.61C941.98 872.10 941.22 875.10 940.42 878.09C936.93 891.25 933.42 904.40 929.93 917.56C929.25 920.11 928.52 922.64 927.99 925.21C927.91 925.59 927.79 925.88 927.65 926.12L923.13 926.12C922.92 925.58 923.08 924.84 923.31 923.99M897.87 904.46C899.86 896.83 901.70 889.17 903.64 881.53C904.15 879.54 904.64 877.51 905.45 875.63C907.52 870.82 906.54 866.13 905.25 861.39C902.87 852.60 900.54 843.79 898.18 834.99C896.48 828.64 894.73 822.30 893.06 815.95C892.66 814.46 892.43 812.92 892.15 811.43L896.60 811.43C896.83 811.87 897.03 812.45 897.24 813.20C899.32 820.81 901.20 828.48 903.22 836.11C904.81 842.11 906.51 848.08 908.12 854.07C909.27 858.33 910.62 862.56 911.40 866.90C912.24 871.58 910.19 875.97 909.06 880.41C906.89 888.96 904.58 897.49 902.34 906.03C900.74 912.12 899.21 918.22 897.56 924.29C897.35 925.08 897.09 925.68 896.76 926.12L891.97 926.12C893.97 918.80 895.99 911.65 897.87 904.46M861.99 923.11C863.74 916.50 865.38 909.85 867.13 903.23C868.98 896.25 870.93 889.29 872.82 882.32C873.92 878.24 875.17 874.19 875.98 870.06C876.28 868.52 875.62 866.74 875.19 865.12C872.29 854.13 869.34 843.15 866.42 832.16C864.82 826.16 863.24 820.16 861.67 814.16C861.57 813.80 861.57 813.41 861.44 812.39C861.58 812.21 861.78 811.81 862.02 811.43L865.39 811.43C865.58 811.58 865.73 811.74 865.80 811.92C866.91 814.39 867.64 817.04 868.35 819.67C870.79 828.64 873.16 837.63 875.53 846.61C877.43 853.78 879.30 860.95 881.15 868.13C881.30 868.75 881.32 869.48 881.15 870.09C879.15 877.33 877.03 884.54 875.09 891.79C873.11 899.14 871.31 906.53 869.42 913.90C868.51 917.44 867.57 920.97 866.68 924.52C866.52 925.16 866.27 925.70 865.95 926.12L861.84 926.12C861.33 925.33 861.70 924.20 861.99 923.11M830.41 926.11C833.47 914.97 836.54 903.97 839.51 892.93C841.37 886.06 843.39 879.20 844.69 872.22C845.27 869.11 844.69 865.61 843.91 862.47C841.11 851.07 838.00 839.74 835.00 828.39C833.71 823.48 832.43 818.57 831.08 813.68C830.86 812.90 830.46 812.07 830.64 811.43L834.97 811.43C835.21 811.77 835.41 812.19 835.54 812.71C836.70 817.07 837.99 821.40 839.16 825.76C841.84 835.74 844.50 845.72 847.13 855.72C848.19 859.71 849.51 863.68 850.02 867.75C850.33 870.24 849.52 872.95 848.87 875.47C845.65 888.04 842.34 900.58 839.02 913.11C837.98 917.02 836.88 920.90 835.67 924.76C835.49 925.33 835.30 925.76 835.09 926.12L830.44 926.12C830.43 926.12 830.42 926.11 830.41 926.11M802.48 915.98C804.80 907.00 807.12 898.02 809.45 889.04C811.08 882.77 812.75 876.51 814.32 870.22C814.56 869.29 814.59 868.19 814.35 867.27C812.44 859.80 810.46 852.36 808.46 844.92C805.85 835.21 803.19 825.52 800.59 815.82C800.20 814.36 799.95 812.87 799.65 811.43L804.40 811.43C804.77 811.92 805.07 812.56 805.29 813.40C808.29 824.85 811.33 836.30 814.32 847.75C816.09 854.57 817.91 861.38 819.44 868.25C819.80 869.85 819.19 871.75 818.76 873.44C815.84 884.71 812.86 895.97 809.87 907.22C808.38 912.85 806.87 918.48 805.23 924.08C804.97 925.00 804.67 925.65 804.30 926.12L799.83 926.12C800.71 922.76 801.60 919.37 802.48 915.98M769.45 924.49C771.36 917.23 773.30 909.98 775.21 902.72C777.48 894.10 779.72 885.47 781.99 876.84C782.25 875.84 782.52 874.84 782.90 873.88C784.91 868.78 782.72 864.03 781.54 859.27C779.07 849.33 776.37 839.45 773.74 829.55C772.40 824.47 770.99 819.40 769.64 814.31C769.38 813.34 768.93 812.25 769.37 811.43L773.44 811.43C773.76 811.92 774.03 812.55 774.24 813.35C776.10 820.53 778.12 827.67 780.00 834.86C782.67 845.12 784.98 855.50 788.04 865.65C789.42 870.23 787.50 873.97 786.66 877.97C785.22 884.76 783.27 891.44 781.48 898.15C779.05 907.33 776.61 916.51 774.06 925.65C774.01 925.82 773.91 925.98 773.78 926.12L769.51 926.12C769.29 925.73 769.27 925.20 769.45 924.49M741.01 911.95C742.67 905.49 744.49 899.08 746.21 892.64C748.22 885.13 750.25 877.63 752.09 870.08C752.42 868.73 752.04 867.11 751.66 865.71C749.40 857.27 746.97 848.88 744.75 840.44C742.20 830.78 739.81 821.08 737.36 811.43L741.85 811.43C742.08 811.83 742.28 812.30 742.46 812.92C744.26 819.33 745.90 825.79 747.62 832.22C749.58 839.56 751.57 846.89 753.52 854.24C754.62 858.41 756.04 862.56 756.60 866.81C756.97 869.70 756.46 872.84 755.72 875.71C752.60 887.88 749.23 900.00 745.99 912.14C744.92 916.13 743.95 920.15 742.95 924.15C742.73 925.04 742.46 925.67 742.09 926.12L737.65 926.12C738.78 921.30 739.81 916.60 741.01 911.95M706.82 925.34C707.35 923.16 707.75 921.42 708.20 919.70C710.83 909.64 713.46 899.57 716.13 889.52C717.81 883.18 719.63 876.87 721.26 870.52C721.56 869.31 721.47 867.88 721.16 866.66C719.24 859.20 717.21 851.77 715.22 844.33C713.53 837.98 711.86 831.63 710.14 825.28C709.14 821.57 707.97 817.89 707.09 814.15C706.89 813.30 706.61 812.21 707.02 811.43L711.31 811.43C711.64 811.88 711.89 812.47 712.08 813.20C714.96 824.38 717.98 835.52 720.92 846.68C722.79 853.77 724.99 860.79 726.28 867.98C726.78 870.80 725.30 874.01 724.54 877.00C722.56 884.82 720.48 892.62 718.43 900.42C716.74 906.87 715.03 913.31 713.32 919.75C712.81 921.65 712.53 923.69 711.62 925.38C711.46 925.67 711.17 925.92 710.82 926.12L707.44 926.12C707.22 925.83 707.00 925.52 706.82 925.34M675.92 926.01C677.90 918.59 679.95 911.10 681.91 903.59C683.89 895.96 685.77 888.31 687.72 880.68C688.28 878.49 688.75 876.26 689.60 874.18C691.18 870.32 690.37 866.57 689.38 862.83C686.16 850.57 682.85 838.33 679.59 826.08C678.46 821.82 677.31 817.56 676.29 813.27C676.17 812.78 676.20 811.98 676.32 811.43L680.22 811.43C680.57 811.88 680.82 812.58 680.97 813.13C683.71 823.29 686.41 833.45 689.09 843.62C691.05 851.06 692.75 858.59 695.01 865.94C696.00 869.16 695.15 871.97 694.41 874.79C690.67 889.06 686.72 903.28 682.87 917.52C682.23 919.87 681.81 922.29 681.10 924.62C680.91 925.24 680.69 925.73 680.45 926.12L676.10 926.12C676.04 926.08 675.98 926.06 675.92 926.01M647.49 917.05C649.86 908.07 652.26 899.10 654.67 890.13C656.46 883.51 658.47 876.96 659.96 870.28C660.39 868.35 659.51 866.05 658.98 863.99C656.39 853.88 653.76 843.79 651.06 833.71C649.11 826.45 647.03 819.23 645.02 811.98C644.97 811.81 644.98 811.62 645.00 811.43L649.79 811.43C650.13 811.90 650.40 812.52 650.61 813.32C653.43 824.23 656.20 835.16 659.02 846.07C660.90 853.35 662.86 860.61 664.73 867.88C664.93 868.66 664.96 869.56 664.76 870.33C662.35 879.51 659.84 888.66 657.42 897.84C655.15 906.47 652.94 915.10 650.78 923.75C650.51 924.81 650.23 925.59 649.85 926.12L645.26 926.12C645.99 923.11 646.69 920.07 647.49 917.05M954.17 1050.07C957.07 1039.29 960.04 1028.54 962.94 1017.76C964.83 1010.70 967.08 1003.69 968.29 996.51C968.84 993.22 967.45 989.53 966.62 986.10C964.97 979.35 963.09 972.66 961.31 965.95C959.65 959.69 958.00 953.42 956.34 947.16C955.62 944.44 954.85 941.73 954.18 938.99C954.05 938.41 954.08 937.99 954.23 937.65L958.39 937.65C958.67 937.95 958.90 938.27 958.99 938.62C962.46 951.68 965.79 964.78 969.19 977.86C970.42 982.59 971.90 987.26 972.97 992.02C973.37 993.84 973.28 995.93 972.83 997.76C970.87 1005.79 968.66 1013.75 966.59 1021.75C964.68 1029.12 962.84 1036.51 960.95 1043.88C960.29 1046.43 959.62 1048.98 958.85 1051.50C958.71 1051.97 958.49 1052.34 958.23 1052.63L954.36 1052.63C953.80 1051.97 953.93 1050.98 954.17 1050.07M923.15 1050.68C925.56 1041.81 927.86 1032.91 930.27 1024.03C932.58 1015.52 935.12 1007.06 937.23 998.50C937.81 996.16 937.61 993.42 937.06 991.03C935.26 983.25 933.17 975.54 931.13 967.82C928.92 959.46 926.64 951.12 924.41 942.77C923.97 941.12 923.57 939.46 923.11 937.65L927.79 937.65C928.20 938.15 928.52 938.85 928.75 939.79C931.02 948.80 933.31 957.81 935.68 966.80C937.86 975.07 940.47 983.23 942.24 991.58C942.90 994.71 942.02 998.30 941.30 1001.57C940.17 1006.69 938.55 1011.71 937.19 1016.79C935.18 1024.32 933.22 1031.86 931.24 1039.40C930.19 1043.39 929.06 1047.37 928.10 1051.38C927.97 1051.93 927.77 1052.33 927.53 1052.63L923.24 1052.63C922.94 1052.19 922.91 1051.56 923.15 1050.68M892.91 1049.16C893.98 1044.79 895.24 1040.47 896.40 1036.12C898.78 1027.15 901.13 1018.16 903.51 1009.18C904.72 1004.65 906.08 1000.16 907.10 995.59C907.37 994.34 906.77 992.86 906.42 991.52C904.41 983.90 902.32 976.30 900.32 968.67C897.78 958.96 895.29 949.22 892.79 939.49C892.74 939.31 892.74 939.12 892.65 938.24C892.80 938.11 892.98 937.89 893.20 937.65L897.12 937.65C897.34 937.95 897.52 938.32 897.64 938.76C898.87 943.29 900.12 947.83 901.30 952.37C902.67 957.64 903.95 962.94 905.32 968.21C907.58 976.84 909.91 985.44 912.12 994.08C912.33 994.91 911.99 995.92 911.77 996.81C909.24 1006.63 906.71 1016.45 904.13 1026.26C902.45 1032.61 900.69 1038.94 898.97 1045.28C898.47 1047.09 898.07 1048.93 897.50 1050.71C897.27 1051.42 896.98 1052.12 896.55 1052.63L893.08 1052.63C892.23 1051.73 892.63 1050.31 892.91 1049.16M862.21 1049.88C864.50 1041.06 866.64 1032.20 868.93 1023.39C871.11 1015.03 873.51 1006.73 875.60 998.36C876.10 996.34 876.19 994.02 875.72 992.01C873.91 984.13 871.83 976.30 869.78 968.48C867.31 959.03 864.78 949.59 862.22 940.16C861.98 939.27 861.46 938.38 861.81 937.65L866.19 937.65C866.45 938.00 866.66 938.43 866.80 938.95C868.64 945.55 870.40 952.17 872.16 958.79C874.20 966.51 876.21 974.24 878.24 981.97C879.34 986.15 880.44 990.32 881.56 994.56C880.44 998.79 879.33 1002.96 878.24 1007.14C875.91 1016.05 873.60 1024.96 871.25 1033.87C869.74 1039.58 868.18 1045.28 866.65 1050.99C866.47 1051.68 866.18 1052.23 865.80 1052.63L861.90 1052.63C861.38 1051.93 861.95 1050.89 862.21 1049.88M830.56 1052.52C831.88 1047.62 833.22 1042.66 834.53 1037.70C836.51 1030.17 838.49 1022.64 840.43 1015.11C842.08 1008.75 843.77 1002.39 845.22 995.99C845.57 994.46 845.34 992.68 844.94 991.12C842.72 982.67 840.32 974.26 838.08 965.81C836.09 958.27 834.23 950.69 832.32 943.12C831.88 941.36 831.46 939.57 831.00 937.65L835.46 937.65C835.85 938.13 836.14 938.82 836.39 939.79C839.05 949.88 841.73 959.97 844.39 970.06C846.31 977.32 848.31 984.57 850.05 991.87C850.51 993.82 850.53 996.06 850.06 997.99C848.30 1005.11 846.20 1012.14 844.32 1019.22C842.24 1027.03 840.29 1034.87 838.23 1042.69C837.51 1045.41 836.72 1048.13 835.81 1050.80C835.54 1051.60 835.26 1052.20 834.95 1052.63L830.81 1052.63C830.72 1052.59 830.65 1052.56 830.56 1052.52M800.56 1049.74C802.90 1040.77 805.19 1031.77 807.56 1022.80C809.48 1015.54 811.38 1008.27 813.49 1001.07C814.68 996.99 814.94 993.25 813.62 988.98C810.91 980.30 809.04 971.35 806.72 962.54C804.79 955.18 802.76 947.85 800.67 940.54C800.29 939.21 800.22 938.27 800.60 937.65L804.67 937.65C804.94 937.95 805.19 938.29 805.29 938.68C808.36 949.82 811.33 960.99 814.28 972.16C816.16 979.24 818.11 986.32 819.69 993.47C820.09 995.25 819.40 997.36 818.90 999.24C816.01 1010.14 812.99 1021.01 810.10 1031.91C808.42 1038.26 806.90 1044.66 805.30 1051.04C805.13 1051.71 804.85 1052.24 804.49 1052.63L800.63 1052.63C800.02 1051.91 800.28 1050.81 800.56 1049.74M769.79 1049.96C772.27 1040.81 774.74 1031.66 777.15 1022.50C779.34 1014.15 781.71 1005.83 783.43 997.39C784.04 994.41 783.36 990.98 782.60 987.93C779.79 976.53 776.72 965.18 773.70 953.83C772.28 948.48 770.76 943.16 769.24 937.65L773.87 937.65C774.10 938.05 774.29 938.58 774.50 939.26C776.02 944.29 777.34 949.39 778.70 954.47C780.69 961.91 782.65 969.36 784.61 976.82C786.02 982.18 787.83 987.48 788.64 992.94C789.09 995.93 788.07 999.24 787.31 1002.30C784.88 1012.06 782.28 1021.77 779.70 1031.49C777.95 1038.12 776.02 1044.71 774.35 1051.36C774.22 1051.91 774.02 1052.31 773.79 1052.63L769.45 1052.63C768.96 1051.93 769.54 1050.89 769.79 1049.96M737.79 1050.76C738.57 1048.08 739.23 1045.92 739.81 1043.75C741.93 1035.87 744.06 1027.99 746.12 1020.10C747.77 1013.74 748.83 1007.18 751.08 1001.05C753.10 995.52 751.75 990.62 750.39 985.48C747.76 975.49 745.20 965.48 742.56 955.49C741.24 950.49 739.82 945.52 738.46 940.54C738.20 939.55 737.77 938.43 738.22 937.65L742.32 937.65C742.65 938.09 742.90 938.67 743.09 939.41C744.86 946.61 746.90 953.73 748.81 960.90C750.86 968.60 752.91 976.30 754.92 984.01C755.71 987.01 756.50 990.01 757.09 993.05C757.34 994.35 757.32 995.81 757.00 997.09C755.18 1004.28 753.24 1011.44 751.35 1018.61C749.67 1024.96 748.00 1031.31 746.33 1037.67C745.23 1041.84 744.13 1046.01 743.03 1050.19C742.91 1050.64 742.73 1051.08 742.55 1051.51C742.38 1051.93 742.15 1052.31 741.89 1052.63L738.86 1052.63C738.42 1052.05 738.12 1051.26 737.79 1050.76M707.33 1050.59C709.28 1042.76 711.27 1034.95 713.32 1027.15C714.98 1020.80 716.72 1014.47 718.44 1008.14C719.45 1004.42 720.92 1000.77 721.36 996.99C721.69 994.21 720.91 991.22 720.22 988.42C718.38 980.94 716.29 973.52 714.34 966.06C712.20 957.88 710.11 949.68 707.99 941.50C707.85 940.95 707.71 940.39 707.48 939.88C707.12 939.10 706.82 938.27 707.10 937.65L711.74 937.65C711.86 937.87 711.97 938.13 712.05 938.45C712.86 941.63 713.74 944.80 714.60 947.98C716.66 955.59 718.74 963.20 720.77 970.82C722.70 978.08 724.57 985.36 726.44 992.64C726.60 993.27 726.55 993.96 726.63 995.22C726.07 997.68 725.46 1000.72 724.67 1003.71C722.65 1011.44 720.55 1019.14 718.47 1026.86C716.32 1034.83 714.21 1042.82 711.96 1050.78C711.77 1051.44 711.26 1052.11 710.68 1052.63L707.44 1052.63C707.17 1052.12 707.17 1051.20 707.33 1050.59M678.81 1041.65C680.86 1033.76 682.91 1025.86 684.96 1017.97C686.55 1011.88 687.79 1005.67 689.87 999.75C691.40 995.38 690.43 991.47 689.38 987.43C686.13 974.97 682.79 962.54 679.49 950.10C678.39 945.94 677.31 941.77 676.23 937.65L680.80 937.65C681.16 938.11 681.43 938.74 681.66 939.60C683.93 948.32 686.23 957.04 688.54 965.75C691.00 975.01 693.71 984.22 695.82 993.55C696.34 995.87 695.10 998.64 694.46 1001.15C692.43 1009.06 690.32 1016.96 688.22 1024.86C686.16 1032.66 684.08 1040.46 682.02 1048.27C681.87 1048.82 681.80 1049.38 681.69 1049.93C681.45 1051.19 681.11 1052.07 680.60 1052.63L675.99 1052.63C676.92 1049.00 677.86 1045.32 678.81 1041.65M645.57 1051.77C646.31 1048.46 646.81 1045.79 647.51 1043.17C649.29 1036.46 651.19 1029.79 652.98 1023.08C655.13 1015.02 656.80 1006.80 659.46 998.91C661.12 994.01 659.05 990.03 658.04 985.77C655.95 976.90 653.50 968.12 651.20 959.30C649.49 952.76 647.80 946.22 646.04 939.70C645.83 938.93 645.66 938.20 645.88 937.65L650.41 937.65C650.52 937.86 650.62 938.11 650.70 938.42C652.81 946.98 654.96 955.54 657.21 964.08C659.07 971.16 661.11 978.20 663.03 985.27C663.80 988.08 664.74 990.88 665.10 993.75C665.32 995.53 664.72 997.47 664.26 999.28C661.89 1008.66 659.49 1018.02 657.03 1027.37C654.92 1035.36 652.72 1043.33 650.54 1051.30C650.39 1051.84 650.15 1052.29 649.84 1052.63L646.36 1052.63C646.04 1052.30 645.78 1051.95 645.57 1051.77M950.26 1176.68C946.78 1163.31 943.11 1149.99 939.52 1136.65C938.29 1132.11 937.08 1127.57 935.91 1123.02C935.70 1122.21 935.74 1121.33 935.67 1120.48C935.58 1120.46 935.48 1120.43 935.39 1120.40C936.13 1117.49 936.85 1114.59 937.60 1111.69C939.70 1103.62 941.79 1095.54 943.93 1087.48C945.62 1081.13 947.38 1074.80 949.09 1068.46C949.51 1066.93 949.91 1065.39 950.30 1063.84C950.39 1063.50 950.52 1063.23 950.66 1063.00L955.17 1063.00C955.49 1063.64 955.09 1064.55 954.87 1065.39C952.87 1072.74 950.93 1080.10 948.97 1087.45C947.28 1093.81 945.56 1100.16 943.89 1106.52C942.81 1110.61 941.41 1114.66 940.88 1118.82C940.54 1121.41 941.35 1124.22 942.01 1126.83C944.57 1136.94 947.26 1147.01 949.94 1157.09C951.58 1163.27 953.24 1169.44 954.96 1175.59C955.08 1176.02 955.19 1176.44 955.24 1176.83L950.31 1176.83C950.30 1176.77 950.28 1176.73 950.26 1176.68M919.18 1175.45C916.57 1165.65 913.83 1155.89 911.22 1146.09C909.27 1138.74 907.75 1131.26 905.48 1124.02C904.19 1119.92 905.71 1116.41 906.54 1112.80C908.33 1104.95 910.66 1097.21 912.74 1089.42C914.93 1081.18 917.14 1072.94 919.23 1064.67C919.42 1063.96 919.68 1063.41 920.03 1063.00L924.06 1063.00C924.51 1063.72 924.20 1064.77 923.97 1065.62C921.12 1076.43 918.15 1087.20 915.28 1098.00C913.42 1104.99 911.64 1112.00 909.89 1119.02C909.67 1119.90 909.67 1120.94 909.90 1121.82C911.81 1128.89 913.87 1135.93 915.73 1143.01C918.05 1151.82 920.22 1160.67 922.46 1169.50C923.07 1171.91 923.71 1174.32 924.38 1176.83L919.61 1176.83C919.46 1176.44 919.32 1175.98 919.18 1175.45M888.87 1176.42C887.32 1171.30 885.96 1166.12 884.57 1160.95C882.58 1153.51 880.62 1146.05 878.67 1138.60C877.17 1132.87 875.59 1127.16 874.31 1121.38C873.96 1119.84 874.40 1118.03 874.80 1116.43C876.75 1108.79 878.80 1101.19 880.83 1093.58C883.15 1084.88 885.49 1076.18 887.81 1067.48C887.96 1066.94 888.01 1066.37 888.10 1065.81C888.33 1064.51 888.66 1063.59 889.18 1063.00L893.84 1063.00C892.32 1069.04 890.89 1074.89 889.36 1080.72C887.34 1088.44 885.23 1096.14 883.16 1103.84C881.92 1108.47 880.22 1113.03 879.60 1117.74C879.18 1120.96 879.91 1124.46 880.71 1127.69C883.53 1139.08 886.58 1150.42 889.59 1161.76C890.94 1166.83 892.39 1171.86 893.79 1176.83L889.02 1176.83C888.97 1176.69 888.91 1176.57 888.87 1176.42M857.98 1176.68C854.81 1164.79 851.77 1152.88 848.63 1140.99C846.96 1134.64 845.15 1128.32 843.42 1121.99C843.28 1121.45 843.29 1120.86 843.22 1120.17C843.99 1117.10 844.77 1113.92 845.59 1110.74C847.25 1104.30 848.90 1097.85 850.61 1091.42C852.20 1085.44 853.87 1079.48 855.49 1073.51C856.32 1070.44 857.31 1067.39 857.86 1064.27C857.95 1063.72 858.11 1063.32 858.31 1063.00L862.67 1063.00C862.98 1063.63 862.65 1064.52 862.43 1065.37C858.99 1078.35 855.57 1091.33 852.15 1104.32C850.98 1108.77 849.68 1113.18 848.74 1117.68C848.35 1119.55 848.43 1121.66 848.89 1123.52C851.37 1133.54 853.99 1143.52 856.65 1153.49C858.55 1160.66 860.59 1167.80 862.58 1174.94C862.78 1175.66 862.87 1176.29 862.85 1176.83L858.03 1176.83C858.01 1176.78 857.99 1176.72 857.98 1176.68M826.82 1175.43C824.52 1166.62 822.10 1157.83 819.79 1149.02C817.32 1139.57 814.67 1130.15 812.65 1120.59C812.15 1118.20 813.71 1115.36 814.38 1112.74C816.67 1103.75 818.96 1094.75 821.31 1085.77C823.12 1078.88 824.96 1071.99 826.88 1065.12C827.15 1064.14 827.44 1063.47 827.83 1063.00L832.24 1063.00C831.73 1065.42 831.28 1067.87 830.65 1070.27C829.31 1075.36 827.83 1080.41 826.47 1085.49C824.45 1093.02 822.47 1100.56 820.48 1108.09C819.46 1111.99 817.90 1115.86 817.60 1119.82C817.37 1122.77 818.69 1125.87 819.47 1128.86C821.41 1136.31 823.44 1143.75 825.43 1151.19C827.13 1157.54 828.86 1163.88 830.52 1170.24C831.08 1172.38 831.56 1174.57 832.07 1176.83L827.29 1176.83C827.12 1176.43 826.96 1175.98 826.82 1175.43M793.09 1163.86C790.75 1155.05 788.43 1146.23 786.07 1137.42C784.76 1132.52 783.01 1127.70 782.21 1122.72C781.76 1119.90 782.50 1116.75 783.24 1113.88C786.02 1103.08 789.04 1092.34 791.93 1081.56C793.41 1076.03 794.66 1070.44 796.24 1064.94C796.49 1064.08 796.72 1063.45 797.00 1063.00L801.43 1063.00C800.48 1066.99 799.57 1071.01 798.56 1075.00C796.87 1081.64 795.15 1088.27 793.39 1094.90C791.57 1101.70 789.85 1108.54 787.78 1115.27C786.63 1119.02 787.13 1122.57 788.04 1126.12C790.36 1135.13 792.82 1144.10 795.22 1153.08C797.25 1160.70 799.33 1168.31 801.24 1175.96C801.30 1176.19 801.29 1176.50 801.23 1176.83L796.54 1176.83C795.39 1172.51 794.23 1168.18 793.09 1163.86M765.52 1176.25C762.92 1166.35 760.32 1156.46 757.71 1146.56C755.47 1138.03 753.23 1129.49 750.99 1120.95C750.92 1120.68 750.91 1120.39 750.85 1119.99C751.59 1117.30 752.40 1114.51 753.12 1111.70C755.14 1103.90 757.09 1096.08 759.14 1088.29C761.25 1080.22 763.42 1072.16 765.64 1064.11C765.76 1063.66 765.96 1063.30 766.20 1063.00L770.33 1063.00C770.79 1063.70 770.53 1064.69 770.29 1065.59C767.33 1076.94 764.36 1088.30 761.35 1099.64C759.70 1105.90 757.73 1112.09 756.40 1118.42C755.91 1120.74 756.59 1123.42 757.19 1125.83C759.40 1134.67 761.78 1143.46 764.13 1152.26C766.16 1159.88 768.22 1167.50 770.27 1175.11C770.42 1175.70 770.57 1176.28 770.58 1176.83L765.72 1176.83C765.64 1176.64 765.57 1176.45 765.52 1176.25M734.22 1176.49C732.38 1169.89 730.71 1163.24 728.94 1156.61C727.02 1149.45 725.07 1142.30 723.15 1135.13C721.91 1130.51 720.56 1125.90 719.58 1121.21C719.26 1119.68 719.83 1117.89 720.24 1116.28C722.78 1106.38 725.35 1096.48 727.99 1086.61C729.92 1079.36 731.89 1072.11 734.00 1064.91C734.25 1064.07 734.48 1063.45 734.77 1063.00L739.26 1063.00C738.33 1066.61 737.39 1070.25 736.45 1073.89C734.39 1081.79 732.34 1089.70 730.26 1097.59C728.59 1103.94 726.99 1110.32 725.11 1116.62C723.89 1120.72 725.28 1124.42 726.26 1128.20C728.80 1138.12 731.38 1148.02 733.98 1157.92C735.62 1164.19 737.33 1170.44 739.00 1176.69C739.01 1176.74 739.01 1176.78 739.02 1176.83L734.34 1176.83C734.30 1176.71 734.26 1176.62 734.22 1176.49M703.26 1176.58C700.14 1164.29 696.77 1152.06 693.50 1139.81C691.93 1133.90 690.19 1128.03 688.92 1122.06C688.50 1120.07 689.08 1117.77 689.59 1115.70C691.10 1109.59 692.81 1103.54 694.40 1097.46C696.17 1090.75 697.85 1084.02 699.65 1077.32C700.91 1072.64 702.28 1067.98 703.70 1063.00L708.05 1063.00C708.25 1063.42 708.26 1063.98 708.07 1064.70C705.76 1073.31 703.45 1081.93 701.15 1090.55C698.67 1099.81 696.04 1109.04 693.88 1118.38C693.36 1120.57 694.20 1123.20 694.81 1125.52C697.65 1136.34 700.64 1147.12 703.55 1157.93C705.11 1163.73 706.65 1169.54 708.11 1175.38C708.23 1175.85 708.34 1176.35 708.35 1176.83L703.34 1176.83C703.31 1176.74 703.28 1176.67 703.26 1176.58M672.28 1175.74C669.87 1166.67 667.38 1157.63 665.01 1148.55C662.59 1139.29 660.25 1130.00 657.90 1120.72C657.79 1120.29 657.75 1119.78 657.86 1119.36C660.07 1111.21 662.34 1103.09 664.51 1094.94C666.22 1088.51 667.78 1082.05 669.45 1075.61C670.41 1071.89 671.37 1068.17 672.50 1064.50C672.70 1063.85 672.93 1063.37 673.22 1063.00L677.73 1063.00C676.56 1067.52 675.40 1072.05 674.22 1076.57C671.90 1085.47 669.56 1094.37 667.24 1103.27C665.88 1108.44 664.43 1113.60 663.27 1118.82C662.92 1120.36 663.13 1122.16 663.54 1123.73C666.06 1133.45 668.75 1143.13 671.31 1152.85C673.42 1160.84 675.46 1168.86 677.51 1176.83L672.64 1176.83C672.51 1176.51 672.38 1176.15 672.28 1175.74M638.28 1163.24C636.28 1155.80 634.28 1148.36 632.29 1140.92C630.65 1134.74 628.78 1128.61 627.52 1122.36C627.04 1120.00 627.70 1117.29 628.33 1114.86C630.23 1107.51 632.43 1100.23 634.40 1092.89C636.36 1085.55 638.17 1078.17 640.06 1070.80C640.72 1068.25 641.41 1065.70 642.12 1063.00L647.00 1063.00C646.25 1065.99 645.65 1068.48 644.99 1070.94C642.99 1078.47 640.95 1085.99 638.94 1093.52C637.05 1100.61 635.45 1107.78 633.23 1114.76C631.83 1119.12 632.64 1123.08 633.72 1127.21C635.74 1134.93 637.65 1142.69 639.71 1150.42C641.64 1157.68 643.70 1164.92 645.70 1172.16C646.02 1173.34 646.27 1174.55 646.61 1175.72C646.72 1176.09 646.83 1176.47 646.88 1176.83L641.91 1176.83C640.73 1172.29 639.49 1167.77 638.28 1163.24" fill="#000" fill-rule="evenodd"/></svg>