<svg xmlns="http://www.w3.org/2000/svg" viewBox="135.09 374.69 400.07 800.00"><path d="M508.47 420.96L484.53 455.92L465.82 444.46L467.71 425.46L491.93 401.23L508.47 401.23L508.47 420.96M508.47 470.72L492.95 461.14L508.47 438.52L508.47 470.72M508.47 520.04L458.28 520.04L459.29 510.75L481.49 478.12L508.47 486.97L508.47 520.04M508.47 549.63L453.93 563.56L456.68 536.72L508.47 536.72L508.47 549.63M508.47 590.97L452.04 582.99L452.04 582.85L508.47 569.50L508.47 590.97M508.47 614.04L472.78 630.57L449.28 610.12L451.02 592.86L508.47 600.98L508.47 614.04M508.47 655.81L506.29 659.88L499.47 653.93L508.47 650.30L508.47 655.81M508.47 708.18L488.74 727.76L508.47 691.06L508.47 708.18M508.47 757.65L495.70 744.44L508.47 731.68L508.47 757.65M508.47 842.36L486.56 828.87L496.57 787.24L508.47 800.44L508.47 842.36M508.47 897.05L472.35 887.62L484.53 837.14L508.47 851.93L508.47 897.05M508.47 956.96L493.38 978.28L474.96 959.71L508.47 926.35L508.47 956.96M508.47 993.22L500.64 985.39L508.47 974.22L508.47 993.22M508.47 1057.63L481.20 1012.66L491.93 997.43L508.47 1013.96L508.47 1057.63M508.47 1148.00L469.88 1148.00L459.29 1092.44L508.47 1109.12L508.47 1148.00M474.96 1021.51L500.64 1063.86L454.36 1050.66L474.96 1021.51M448.99 1148.00L426.08 1090.41L431.44 1083.01L441.16 1086.20L453.06 1148.00L448.99 1148.00M395.47 1148.00L397.06 1131.46L414.61 1106.66L431.01 1148.00L395.47 1148.00M389.95 1124.21L373.13 1148.00L341.51 1148.00L336.28 1137.99L337.44 1097.37L371.97 1062.85L395.32 1070.68L389.95 1124.21M310.46 731.97L312.64 730.95L336.28 745.60L335.41 773.02L310.46 731.97M334.11 819.01L307.85 792.60L292.77 754.74L303.35 739.22L334.98 791.30L334.11 819.01M329.32 990.32L317.86 1011.64L276.23 999.75L267.67 972.48L331.64 908.51L329.32 990.32M327.58 1052.11L312.93 1056.32L319.02 1044.86L327.72 1047.76L327.58 1052.11M326.27 1094.33L317.86 1102.74L303.21 1074.74L327.14 1067.93L326.27 1094.33M286.67 1148.00L302.92 1131.90L308.00 1148.00L286.67 1148.00M287.11 1033.98L303.07 1039.35L294.22 1055.89L287.11 1033.98M263.75 1148.00L291.61 1096.07L299.44 1121.16L272.60 1148.00L263.75 1148.00M231.26 1137.12L236.48 1093.75L280.73 1081.13L247.51 1143.07L231.26 1137.12M166.42 1098.53L179.47 1060.67L226.62 1013.53L235.76 1016.58L228.07 1080.84L166.42 1098.53M221.69 1133.49L167.29 1113.33L226.04 1096.65L221.69 1133.49M161.92 1148.00L161.92 1130.01L210.66 1148.00L161.92 1148.00M161.92 991.48L183.10 998.73L164.97 1051.68L161.92 1054.73L161.92 991.48M161.92 946.66L194.85 898.35L208.49 924.61L191.08 975.38L161.92 967.11L161.92 946.66M161.92 835.11L189.63 888.34L161.92 928.96L161.92 835.11M161.92 793.18L191.37 781.00L202.97 817.55L163.95 807.54L161.92 803.48L161.92 793.18M161.92 731.39L172.22 720.95L185.86 763.88L161.92 775.05L161.92 731.39M161.92 688.45L166.56 703.10L161.92 707.74L161.92 688.45M161.92 637.83L162.07 637.97L161.92 637.97L161.92 637.83M161.92 552.39L192.24 556.59L203.55 575.16L222.41 622.59L172.95 635.22L161.92 628.40L161.92 552.39M161.92 536.72L180.20 536.72L185.57 545.71L161.92 542.38L161.92 536.72M161.92 506.69L165.69 512.93L161.92 515.69L161.92 506.69M161.92 470.28L175.85 505.68L173.82 507.13L161.92 487.54L161.92 470.28M161.92 410.66L219.07 474.93L189.92 495.67L161.92 425.17L161.92 410.66M184.70 401.23L246.49 455.34L230.10 466.95L167.29 401.23L184.70 401.23M239.09 401.23L294.80 417.48L298.13 418.50L260.56 445.33L210.08 401.23L239.09 401.23M309.59 401.23L308.43 411.24L306.98 412.26L269.56 401.23L309.59 401.23M330.19 506.26L309.16 487.84L315.98 431.70L330.19 506.26M345.86 404.14L345.42 423.43L330.48 419.08L329.76 415.16L345.86 404.14M347.16 752.28L381.25 773.31L391.26 825.39L376.32 840.33L346.15 790.57L347.16 752.28M348.18 716.30L368.78 707.89L379.22 762.58L347.45 742.99L348.18 716.30M349.48 671.62L359.20 657.41L363.70 681.20L349.05 688.02L349.48 671.62M350.93 623.17L353.11 625.64L356.45 643.63L350.06 653.06L350.93 623.17M356.16 437.35L373.71 443.16L354.42 499.59L356.16 437.35M357.17 401.23L380.67 401.23L386.76 405.15L377.33 432.71L356.45 426.62L357.17 401.23M413.60 456.07L372.98 496.68L389.67 448.23L413.60 456.07M401.27 414.00L434.92 434.74L423.61 446.06L393.44 437.35L401.27 414.00M441.89 451.43L449.43 443.74L457.70 448.81L456.97 455.78L441.89 451.43M440.87 520.04L373.13 520.04L431.30 461.87L455.52 469.70L452.18 503.36L440.87 520.04M445.95 565.59L416.65 573.13L441.45 536.72L448.85 536.72L445.95 565.59M445.95 643.05L447.25 630.43L456.25 638.26L445.95 643.05M473.51 721.09L441.45 687.73L442.61 677.43L482.36 661.03L498.17 674.96L473.51 721.09M447.54 804.79L461.61 778.53L476.12 764.03L487.00 776.36L476.12 822.34L447.54 804.79M461.32 884.72L422.74 874.71L425.64 845.55L443.77 811.90L474.09 830.75L461.32 884.72M458.86 943.61L468.43 903.86L506.87 913.73L468.00 952.75L458.86 943.61M458.86 975.96L464.66 970.16L484.82 990.32L475.54 1003.52L458.86 975.96M451.61 983.21L469.30 1012.37L449.43 1040.36L440.58 994.24L451.61 983.21M432.46 951.59L446.24 974.36L438.26 982.34L432.46 951.59M406.49 1037.03L407.51 1027.16L426.22 1008.45L433.18 1044.57L406.49 1037.03M402.58 1076.48L410.26 1095.63L399.09 1111.30L402.58 1076.48M405.48 811.03L400.54 785.21L419.55 796.96L405.48 811.03M424.04 996.70L409.10 1011.64L415.20 950.57L424.04 996.70M449.57 934.33L424.19 909.09L421.00 892.26L421.14 891.53L457.55 900.96L449.57 934.33M447.54 953.18L457.55 963.05L453.49 967.11L440.87 946.37L445.66 951.15L445.22 952.60L447.54 953.18M410.70 690.63L431.15 713.55L423.46 789.85L398.51 774.47L384.59 701.36L410.70 690.63M391.11 668.58L379.22 674.09L374.72 650.01L391.11 668.58M387.49 598.08L374.29 617.52L367.04 609.97L365.73 603.30L387.49 598.08M378.64 582.70L362.68 586.91L361.38 580.38L378.64 582.70M381.54 573.13L359.35 569.94L355.72 550.50L381.54 573.13M365.15 536.72L429.41 536.72L405.48 571.82L365.15 536.72M460.02 746.04L448.12 768.52L431.73 784.77L438.11 721.38L460.02 746.04M425.49 589.38L443.34 591.84L442.18 603.88L425.49 589.38M440.00 624.19L437.82 646.82L413.16 658.28L381.40 624.92L401.85 594.74L405.33 593.87L440.00 624.19M370.08 949.41L395.90 901.40L408.23 913.73L410.12 923.74L400.40 1020.20L398.80 1021.80L370.08 949.41M339.62 1017.88L340.05 1005.55L359.78 968.71L384.44 1030.65L339.62 1017.88M338.31 1064.73L359.93 1058.64L361.52 1059.22L337.88 1082.87L338.31 1064.73M336.86 720.95L336.43 736.18L321.92 727.18L336.86 720.95M333.24 695.41L337.88 688.60L337.73 693.38L333.24 695.41M333.82 610.84L338.75 609.68L340.05 610.99L338.31 670.17L315.54 703.68L299.44 711.23L333.82 610.84M287.54 694.25L284.93 689.90L293.35 620.42L314.67 615.34L287.54 694.25M267.67 834.38L273.33 787.24L275.50 781.00L291.75 797.25L310.90 845.70L267.67 834.38M255.63 934.62L265.64 851.06L318.59 864.84L328.02 888.63L261.87 954.64L255.63 934.62M245.33 1019.77L260.85 1025.13L281.60 1064.88L281.74 1065.31L238.37 1077.79L245.33 1019.77M225.75 925.91L231.84 908.22L244.03 946.95L242.72 958.55L225.75 925.91M217.91 864.55L223.28 881.53L215.01 905.46L204.13 884.57L217.91 864.55M208.92 836.41L214.00 852.51L198.91 874.56L174.40 827.42L208.92 836.41M255.92 848.60L248.23 911.84L239.82 885.01L252.58 847.73L255.92 848.60M250.99 756.48L262.30 767.80L252.73 795.65L232.57 825.24L219.80 821.91L204.86 775.49L250.99 756.48M193.84 699.33L235.32 740.96L199.35 757.65L183.97 709.34L193.84 699.33M229.38 640.29L210.95 658.72L188.90 645.08L227.63 635.94L229.38 640.29M254.04 639.13L266.51 626.80L283.05 622.89L276.52 676.12L254.04 639.13M255.20 660.31L274.63 692.22L274.05 697.59L268.83 694.40L255.20 660.31M225.60 667.71L236.05 657.12L245.04 679.75L225.60 667.71M249.97 692.37L264.04 727.62L249.54 734.29L204.28 689.03L219.66 673.51L249.97 692.37M289.28 570.23L287.98 581.69L255.49 614.18L241.12 617.81L233.29 605.04L215.45 559.93L289.28 570.23M273.91 536.72L291.02 555.87L290.44 560.36L211.10 549.20L206.16 536.72L273.91 536.72M259.11 520.04L199.64 520.04L194.41 506.98L227.49 484.50L259.11 520.04M297.70 500.02L295.38 520.04L280.87 520.04L239.24 476.52L257.08 464.48L297.70 500.02M300.16 480.00L271.30 454.76L305.97 431.26L300.16 480.00M305.39 520.04L306.84 507.85L320.76 520.04L305.39 520.04M322.79 591.70L320.76 597.50L295.23 604.03L296.10 597.07L312.78 580.38L322.79 591.70M332.95 536.72L314.52 555.14L302.63 542.67L303.35 536.72L332.95 536.72M343.54 487.26L332.51 429.67L345.13 433.73L343.54 487.26M351.80 948.40L341.07 968.27L342.38 924.61L351.80 948.40M344.99 829.74L345.57 808.85L369.07 847.44L365.88 850.63L344.99 829.74M183.54 668.14L183.39 668.14L183.25 668.00L183.25 667.85L183.10 667.85L182.96 667.71L182.81 667.71L182.81 667.56L165.84 650.59L177.88 647.69L205.15 664.52L192.38 677.28L184.99 669.74L184.84 669.59L184.70 669.45L184.70 669.30L184.55 669.16L184.41 669.01L184.26 668.87L184.12 668.72L183.97 668.58L183.83 668.43L183.68 668.43L183.68 668.29L183.54 668.14M209.07 1007.58L191.80 1024.84L198.91 1004.10L209.07 1007.58M207.18 980.02L219.07 945.06L237.06 979.44L230.10 986.55L207.18 980.02M405.77 401.23L462.34 401.23L461.76 407.91L440.73 428.94L404.03 406.17L405.77 401.23M471.62 474.93L461.32 490.01L463.06 472.17L471.62 474.93M464.95 453.31L479.60 462.31L464.52 457.95L464.95 453.31M135.09 374.69L135.09 402.83L135.23 403.12L135.23 443.59L135.09 443.45L135.09 462.59L135.23 462.74L135.23 520.04L135.09 520.04L135.09 536.72L135.23 536.72L135.23 538.61L135.09 538.61L135.09 548.61L135.23 548.61L135.23 556.30L135.09 555.87L135.09 604.32L135.23 604.61L135.23 611.86L135.09 611.86L135.09 640.58L135.23 640.73L135.23 734.43L135.09 734.58L135.09 783.76L135.23 784.04L135.23 787.53L135.09 787.53L135.09 817.12L135.23 817.26L135.23 967.98L135.09 968.12L135.09 985.82L135.23 985.68L135.23 1081.42L135.09 1081.42L135.09 1120.15L135.23 1120.15L135.23 1138.28L135.09 1138.57L135.09 1174.69L535.16 1174.69L535.16 374.69L135.09 374.69" fill="#000" fill-rule="evenodd"/></svg>